<?xml version="1.0" encoding="UTF-8"?><svg id="Layer_2" xmlns="http://www.w3.org/2000/svg" viewBox="0 0 858.99902 220.11279"><g id="Layer_1-2"><path d="m7.72705,76.38525c0-31.79248,0-34-7.72705-34v-1.54541h47.46729v1.54541c-7.72705,0-7.72705,2.20752-7.72705,34v68c0,31.79199,0,34,7.72705,34v1.54541H0v-1.54541c7.72705,0,7.72705-2.20801,7.72705-34v-68Z"/><path d="m83.89258,179.93066h-38.85742v-1.54541c5.74023,0,5.96143-3.09082,5.96143-9.93506v-97.14307c0-8.83105-.8833-10.15576-6.62354-10.15576v-1.54541h34.2207c-.2207,8.16895,0,16.3374,0,28.70117h1.104c.8833-24.50635,6.40283-30.68848,19.87012-30.68848,14.35059,0,18.98682,8.83154,18.76611,29.14307v81.68848c0,6.84424.44189,9.93506,5.96143,9.93506v1.54541h-38.63672v-1.54541c2.42871,0,2.87012-2.87012,2.87012-9.93506v-82.79248c0-8.16846-.88281-9.93506-3.09082-9.93506-2.64941,0-4.63623,1.54541-4.63623,14.79248v77.93506c0,7.06494.44141,9.93506,3.09082,9.93506v1.54541Z"/><path d="m181.24854,59.60596h7.94775v1.54541h-7.94775v93.16895c0,7.72705.66211,8.83105,2.42822,8.83105,1.54541,0,2.87012-1.98682,3.09082-30.68848,0-5.29834-.2207-16.1167-.44141-23.18164h1.9873v23.40283c-.44189,41.94775-3.31201,48.57129-17.8833,48.57129-11.48047,0-18.76611-4.41553-18.76611-27.15576V61.15137h-4.85742v-1.54541c20.31201,0,31.57178-9.05225,33.11719-27.59766h1.32471v27.59766Z"/><path d="m226.28516,179.93066h-38.85742v-1.32471c5.07812,0,5.96143-2.42871,5.96143-10.15576V45.69678c0-8.38965-.8833-10.81836-5.74023-10.81836v-1.54541c11.70117-.66211,24.06494-1.98682,35.32471-4.19482-.8833,19.20801-1.9873,37.53271-1.9873,59.16895h1.104c.8833-23.84424,6.18164-30.68848,19.87012-30.68848,14.35059,0,18.98682,8.83154,18.76611,29.14307v81.68848c0,7.72705.6626,10.15576,5.96143,10.15576v1.32471h-38.63672v-1.32471c2.42871,0,2.87012-3.09082,2.87012-10.15576v-82.79248c0-8.16846-.88281-9.93506-3.09082-9.93506-2.64941,0-4.63623,1.54541-4.63623,14.79248v77.93506c0,7.06494.44141,10.15576,3.09082,10.15576v1.32471Z"/><path d="m302.229,181.25537c-24.50684,0-36.42871-11.03906-36.42871-62.48047,0-49.01318,8.38965-60.93506,34.44141-60.93506,25.83154,0,31.79248,14.79199,31.79248,47.90918v12.80518h-35.7666c.8833,35.32471,5.51953,40.84375,17.6626,40.84375,10.15576,0,16.55859-6.62305,16.33789-35.76611h1.76611c0,34.6626-3.75342,57.62354-29.80518,57.62354Zm-5.96143-64.24707h8.38965c0-52.54541-1.54541-57.62305-4.63623-57.62305-2.64941,0-3.75342,3.75293-3.75342,48.57129v9.05176Z"/><path d="m363.59766,40.83984h67.33789v1.54541c-3.09131,9.05176-8.83154,24.72705-24.06494,85l-12.80518,51h.66211c12.58447,0,24.72754-40.84424,34.2207-79.92236h1.32471c-.66211,27.81836-.66211,53.20801,0,81.46777h-70.64941v-1.54541c3.53271-9.93506,8.83105-26.71436,19.42871-66.67529l18.32471-69.32471h-1.32471c-12.36377,0-22.96094,45.92188-30.90918,76.61035h-1.54541c.2207-26.71436.2207-51,0-78.15576Z"/><path d="m469.5708,181.25537c-24.50684,0-36.42871-11.03906-36.42871-62.48047,0-49.01318,8.38965-60.93506,34.44141-60.93506,25.83154,0,31.79248,14.79199,31.79248,47.90918v12.80518h-35.7666c.8833,35.32471,5.51953,40.84375,17.6626,40.84375,10.15576,0,16.55859-6.62305,16.33789-35.76611h1.76611c0,34.6626-3.75342,57.62354-29.80518,57.62354Zm-5.96143-64.24707h8.38965c0-52.54541-1.54541-57.62305-4.63623-57.62305-2.64941,0-3.75342,3.75293-3.75342,48.57129v9.05176Z"/><path d="m498.48779,179.93066v-1.54541c5.29883,0,6.18213-3.97412,6.18213-13.02588v-91.18213c0-9.27246-1.104-13.02588-7.72754-13.02588v-1.54541h37.53271v105.75342c0,9.05176,1.104,13.02588,6.40234,13.02588v1.54541h-42.38965Zm39.07812-137.7666c0,9.05225-6.84424,13.46777-18.54541,13.46777-11.48047,0-18.32471-4.41553-18.32471-13.46777,0-9.27246,6.84424-13.68799,18.32471-13.68799,11.70117,0,18.54541,4.63623,18.54541,13.68799Z"/><path d="m571.78564,59.60596h7.94775v1.54541h-7.94775v93.16895c0,7.72705.66211,8.83105,2.42822,8.83105,1.54541,0,2.87012-1.98682,3.09082-30.68848,0-5.29834-.2207-16.1167-.44141-23.18164h1.9873v23.40283c-.44189,41.94775-3.31201,48.57129-17.8833,48.57129-11.48047,0-18.76611-4.41553-18.76611-27.15576V61.15137h-4.85742v-1.54541c20.31201,0,31.57178-9.05225,33.11719-27.59766h1.32471v27.59766Z"/><path d="m581.49756,199.13867c0-3.09131,3.31152-4.85742,8.38965-5.51953l.2207-.44189c-7.06494-2.20752-11.25977-5.74023-11.25977-16.3374,0-11.03906,6.18164-18.32471,17.6626-18.32471,5.51904,0,8.83105,0,15.0127.2207v-1.32471c-21.85693-.2207-30.02588-12.80518-30.02588-46.14307,0-39.96094,8.83105-52.76611,33.55859-52.76611,5.07764,0,10.59717.44141,14.57129.44141,1.104,0,1.54541-.44141,1.54541-1.10352,0-1.104-1.54541-1.5459-3.31152-2.20801-2.87012-1.32471-5.51953-3.53223-5.51953-8.83105,0-6.40283,4.41553-11.03906,13.02588-11.03906,9.71436,0,13.46777,4.85693,13.46777,12.36377,0,7.94775-5.07812,12.80518-13.24707,12.80518-4.19482,0-9.05176-.8833-15.896-.8833v1.104c23.62354,1.32471,29.14307,18.104,29.14307,50.33789.2207,35.54541-8.83154,48.57129-33.7793,48.57129-20.09131,0-22.29883,1.32471-22.29883,3.97412,0,1.76611,1.54541,2.64941,3.97412,2.64941,3.75293,0,23.84424-1.104,34.66211-1.104,13.24707,0,19.87012,5.96094,19.87012,18.54541,0,15.67529-6.62305,21.41553-35.32471,21.41553-30.24658,0-34.44141-1.98682-34.44141-6.40234Zm51.2207-4.85742c-11.92188,0-30.02588.6626-36.87012.6626-1.54541,0-3.31152,0-4.85693-.22119.2207,3.97412,2.20752,9.49365,24.94775,9.49365,22.07812,0,23.18213-3.31152,23.18213-5.96094,0-2.20801-1.32471-3.97412-6.40283-3.97412Zm-17.66211-134.23389c-2.87012,0-3.75342,3.31201-3.75342,51.2207,0,45.48096.8833,47.46777,3.75342,47.46777,3.09082,0,3.97412-1.98682,3.97412-47.46777,0-48.12988-.8833-51.2207-3.97412-51.2207Z"/><path d="m687.9082,181.25537c-24.50684,0-36.42871-11.03906-36.42871-62.48047,0-49.01318,8.38965-60.93506,34.44141-60.93506,25.83154,0,31.79199,14.79199,31.79199,47.90918v12.80518h-35.76562c.88281,35.32471,5.51904,40.84375,17.66211,40.84375,10.15576,0,16.55859-6.62305,16.33789-35.76611h1.76562c0,34.6626-3.75293,57.62354-29.80469,57.62354Zm-5.96094-64.24707h8.38916c0-52.54541-1.54541-57.62305-4.63623-57.62305-2.64941,0-3.75293,3.75293-3.75293,48.57129v9.05176Z"/><path d="m716.8252,179.93066v-1.54541c5.29883,0,6.18164-3.97412,6.18164-13.02588v-91.18213c0-9.27246-1.10352-13.02588-7.72656-13.02588v-1.54541h37.53223v105.75342c0,9.05176,1.10352,13.02588,6.40234,13.02588v1.54541h-42.38965Zm39.07812-137.7666c0,9.05225-6.84375,13.46777-18.5459,13.46777-11.48047,0-18.32422-4.41553-18.32422-13.46777,0-9.27246,6.84375-13.68799,18.32422-13.68799,11.70215,0,18.5459,4.63623,18.5459,13.68799Z"/><path d="m779.52539,143.28125c-9.71387-16.33789-21.63672-34.8833-21.63672-56.29883,0-17.44141,7.50684-29.14258,27.81836-29.14258,8.38965,0,16.33789,3.75293,20.75391,3.75293,3.09082,0,4.63574-1.32471,5.07715-4.63623h1.3252c-.66211,18.104-.66211,37.97412,0,55.63623h-1.3252c-9.05176-36.20752-17.2207-53.42822-25.61035-53.42822-3.09082,0-4.41504,2.42822-4.41504,5.96094,0,8.61035,5.51953,18.104,12.58398,29.14258,9.93555,15.67529,21.63672,34.6626,21.63672,56.51953,0,22.29883-10.37695,30.46777-27.81836,30.46777-12.36328,0-19.42871-4.63623-24.06543-4.63623-2.42773,0-3.97363,1.10352-4.19434,4.41553h-1.32422c.88281-18.76611.66211-39.07812,0-58.28564h1.54492c7.06543,22.74023,18.10449,57.18164,26.49316,57.18164,2.42871,0,4.41602-1.54541,4.41602-6.18164,0-9.49365-4.85742-19.64941-11.25977-30.46777Z"/><path d="m850.61133,59.60596h7.94824v1.54541h-7.94824v93.16895c0,7.72705.66211,8.83105,2.42871,8.83105,1.54492,0,2.87012-1.98682,3.09082-30.68848,0-5.29834-.2207-16.1167-.44141-23.18164h1.98633v23.40283c-.44141,41.94775-3.31152,48.57129-17.88281,48.57129-11.48047,0-18.7666-4.41553-18.7666-27.15576V61.15137h-4.85645v-1.54541c20.31152,0,31.57129-9.05225,33.11621-27.59766h1.3252v27.59766Z"/></g></svg>