<svg width="557" height="105" viewBox="0 0 557 105" fill="none" xmlns="http://www.w3.org/2000/svg">
<path d="M0.712 77.368V79H23.944V77.368C18.568 77.368 16.168 76.6 16.168 71.608C16.168 70.168 16.36 68.344 17.032 64.504L24.328 24.952C26.248 14.776 28.264 13.432 34.888 13.432V11.8H11.656V13.432C17.032 13.432 19.432 14.296 19.432 19.288C19.432 20.728 19.24 22.552 18.568 26.392L11.272 65.944C9.352 76.12 7.336 77.368 0.712 77.368ZM67.7838 80.728C72.0078 80.728 76.4238 75.928 80.5518 69.688L79.5918 68.536C75.9437 73.528 72.7758 75.928 70.7598 75.928C69.3198 75.928 68.6478 74.872 68.6478 73.24C68.6478 72.568 68.7437 71.704 68.9358 70.648L74.0238 42.52C74.5998 39.352 74.7918 36.856 74.7918 35.608C74.7918 31.672 72.6798 29.272 68.8398 29.272C58.1838 29.272 47.4317 46.552 42.7277 58.168H42.3437L47.6237 29.464H46.3758C44.3598 33.688 37.3517 36.856 31.8797 36.856V38.2H40.9037L33.4157 79H38.5037L39.0797 75.544C39.9437 70.36 41.5757 64.408 44.4557 57.976C50.2158 45.208 59.6237 33.976 65.9598 33.976C68.2638 33.976 69.4157 35.512 69.4157 38.488C69.4157 39.736 69.2238 40.984 68.8398 43.192L64.1358 69.304C63.6557 71.992 63.3678 74.104 63.3678 75.448C63.3678 78.52 64.8078 80.728 67.7838 80.728ZM108.755 80.728C112.979 80.728 117.395 75.928 121.523 69.688L120.563 68.536C116.915 73.528 113.747 75.928 111.731 75.928C110.291 75.928 109.619 74.872 109.619 73.24C109.619 72.568 109.715 71.704 109.907 70.648L117.107 31H119.507C124.019 31 126.611 30.232 129.875 28.312L129.779 27.448C125.171 28.504 122.867 28.6 117.587 28.312L119.411 18.136H118.163C115.763 27.736 111.539 29.656 105.011 29.752V31H112.115L105.107 69.304C104.627 71.992 104.339 74.104 104.339 75.448C104.339 78.52 105.779 80.728 108.755 80.728ZM162.217 80.728C166.441 80.728 170.857 75.928 174.985 69.688L174.025 68.536C170.377 73.528 167.209 75.928 165.193 75.928C163.753 75.928 163.081 74.872 163.081 73.24C163.081 72.568 163.177 71.704 163.369 70.648L168.457 42.52C169.033 39.352 169.225 36.856 169.225 35.608C169.225 31.576 167.113 29.272 163.273 29.272C152.617 29.272 141.865 46.552 137.161 58.168H136.777L147.241 0.471998H145.993C143.977 4.696 136.873 7.86399 131.593 7.86399V9.20799H140.617L127.945 79H132.937L133.513 75.544C134.377 70.36 136.009 64.408 138.889 57.976C144.649 45.208 154.057 33.976 160.393 33.976C162.697 33.976 163.849 35.512 163.849 38.488C163.849 39.832 163.657 40.984 163.273 43.192L158.569 69.304C158.089 71.992 157.801 74.104 157.801 75.448C157.801 78.52 159.241 80.728 162.217 80.728ZM215.46 67.768L214.596 66.712C210.852 72.088 205.764 77.464 197.796 77.464C189.06 77.464 184.164 70.744 184.164 60.568C184.164 58.552 184.356 56.44 184.74 54.424C201.348 54.232 215.94 47.704 215.94 37.24C215.94 31.576 211.62 29.272 206.052 29.272C191.364 29.272 178.308 45.112 178.308 62.008C178.308 73.816 185.028 80.728 195.204 80.728C205.188 80.728 211.428 74.008 215.46 67.768ZM185.124 52.696C187.812 41.08 195.972 31.192 204.036 31.192C208.356 31.192 210.084 33.976 210.084 37.624C210.084 46.264 200.676 52.408 185.124 52.696ZM267.636 76.984H242.388L296.244 12.28L296.052 11.8H258.324C254.1 11.8 253.14 10.456 253.236 8.34399L251.7 7.96L243.54 30.712L245.172 31.096C249.972 20.728 253.62 13.816 267.636 13.816H287.892L233.94 78.616L234.132 79H275.412C278.676 79 279.54 80.44 279.444 82.552L280.884 82.84L291.252 58.264L289.62 57.784C283.188 71.704 279.348 76.984 267.636 76.984ZM332.445 67.768L331.581 66.712C327.837 72.088 322.749 77.464 314.781 77.464C306.045 77.464 301.149 70.744 301.149 60.568C301.149 58.552 301.341 56.44 301.725 54.424C318.333 54.232 332.925 47.704 332.925 37.24C332.925 31.576 328.605 29.272 323.037 29.272C308.349 29.272 295.293 45.112 295.293 62.008C295.293 73.816 302.013 80.728 312.189 80.728C322.173 80.728 328.413 74.008 332.445 67.768ZM302.109 52.696C304.797 41.08 312.957 31.192 321.021 31.192C325.341 31.192 327.069 33.976 327.069 37.624C327.069 46.264 317.661 52.408 302.109 52.696ZM344.327 80.728C348.551 80.728 353.063 75.928 357.095 69.688L356.135 68.536C352.487 73.528 349.319 75.928 347.303 75.928C345.863 75.928 345.191 74.872 345.191 73.24C345.191 72.568 345.287 71.704 345.479 70.648L352.871 29.464H351.719C349.703 33.688 342.599 36.856 337.319 36.856V38.2H346.247L340.679 69.304C340.199 71.992 339.911 74.104 339.911 75.448C339.911 78.52 341.351 80.728 344.327 80.728ZM348.263 14.392C348.263 16.888 349.991 18.616 352.391 18.616C355.271 18.616 357.479 16.408 357.479 13.624C357.479 11.128 355.751 9.4 353.351 9.4C350.471 9.4 348.263 11.608 348.263 14.392ZM368.064 80.728C372.288 80.728 376.704 75.928 380.832 69.688L379.872 68.536C376.224 73.528 373.056 75.928 371.04 75.928C369.6 75.928 368.928 74.872 368.928 73.24C368.928 72.568 369.024 71.704 369.216 70.648L376.416 31H378.816C383.328 31 385.92 30.232 389.184 28.312L389.088 27.448C384.48 28.504 382.176 28.6 376.896 28.312L378.72 18.136H377.472C375.072 27.736 370.848 29.656 364.32 29.752V31H371.424L364.416 69.304C363.936 71.992 363.648 74.104 363.648 75.448C363.648 78.52 365.088 80.728 368.064 80.728ZM398.87 104.728C413.27 104.728 423.83 97.336 423.83 86.68C423.83 79.768 419.702 75.16 407.702 73.336L400.022 72.184C395.414 71.512 393.11 69.688 393.11 67.672C393.11 64.12 399.926 62.968 403.67 62.872H404.342C417.206 62.872 425.078 53.176 425.078 43.864C425.078 35.992 419.414 31.864 416.726 30.616L417.014 30.424C421.526 30.424 424.31 31.768 427.286 31.768C430.934 31.768 432.662 29.848 432.662 28.024C432.662 26.584 431.606 25.816 429.974 25.816C426.422 25.816 421.526 29.272 409.814 29.272C397.814 29.272 388.886 38.968 388.886 49.24C388.886 55.864 392.63 60.472 398.774 62.2C392.342 63.256 388.214 65.656 388.214 69.592C388.214 73.912 393.398 76.024 398.102 76.696L406.646 77.944C415.574 79.288 419.318 83.512 419.318 89.176C419.318 98.104 410.006 103 399.638 103C390.038 103 384.278 98.776 384.278 91.096C384.278 85.336 387.542 81.4 392.918 79.288L392.246 78.136C385.526 79.768 378.806 84.376 378.806 91.576C378.806 99.16 386.198 104.728 398.87 104.728ZM394.838 49.528C394.838 41.272 398.582 30.808 408.95 30.808C416.63 30.808 419.126 36.664 419.126 43.576C419.126 51.544 415.766 61.336 405.014 61.336C398.582 61.336 394.838 57.784 394.838 49.528ZM467.175 67.768L466.311 66.712C462.567 72.088 457.479 77.464 449.511 77.464C440.775 77.464 435.879 70.744 435.879 60.568C435.879 58.552 436.071 56.44 436.455 54.424C453.063 54.232 467.655 47.704 467.655 37.24C467.655 31.576 463.335 29.272 457.767 29.272C443.079 29.272 430.023 45.112 430.023 62.008C430.023 73.816 436.743 80.728 446.919 80.728C456.903 80.728 463.143 74.008 467.175 67.768ZM436.839 52.696C439.527 41.08 447.687 31.192 455.751 31.192C460.071 31.192 461.799 33.976 461.799 37.624C461.799 46.264 452.391 52.408 436.839 52.696ZM479.057 80.728C483.281 80.728 487.793 75.928 491.825 69.688L490.865 68.536C487.217 73.528 484.049 75.928 482.033 75.928C480.593 75.928 479.921 74.872 479.921 73.24C479.921 72.568 480.017 71.704 480.209 70.648L487.601 29.464H486.449C484.433 33.688 477.329 36.856 472.049 36.856V38.2H480.977L475.409 69.304C474.929 71.992 474.641 74.104 474.641 75.448C474.641 78.52 476.081 80.728 479.057 80.728ZM482.993 14.392C482.993 16.888 484.721 18.616 487.121 18.616C490.001 18.616 492.209 16.408 492.209 13.624C492.209 11.128 490.481 9.4 488.081 9.4C485.201 9.4 482.993 11.608 482.993 14.392ZM505.577 80.728C515.465 80.728 521.609 74.968 521.609 67.48C521.609 54.712 503.945 48.76 503.945 38.968C503.945 34.36 507.977 31.096 512.201 31.096C518.153 31.096 518.153 37.432 521.897 37.432C523.529 37.432 524.681 36.184 524.681 34.552C524.681 31.192 519.497 29.272 514.025 29.272C504.809 29.272 500.105 35.32 500.105 41.656C500.105 53.656 517.001 57.688 517.001 69.592C517.001 75.16 513.257 78.904 507.785 78.904C500.009 78.904 500.297 71.128 496.169 71.128C494.633 71.128 493.385 72.088 493.385 73.912C493.385 76.696 496.649 80.728 505.577 80.728ZM535.07 80.728C539.294 80.728 543.71 75.928 547.838 69.688L546.878 68.536C543.23 73.528 540.062 75.928 538.046 75.928C536.606 75.928 535.934 74.872 535.934 73.24C535.934 72.568 536.03 71.704 536.222 70.648L543.422 31H545.822C550.334 31 552.926 30.232 556.19 28.312L556.094 27.448C551.486 28.504 549.182 28.6 543.902 28.312L545.726 18.136H544.478C542.078 27.736 537.854 29.656 531.326 29.752V31H538.43L531.422 69.304C530.942 71.992 530.654 74.104 530.654 75.448C530.654 78.52 532.094 80.728 535.07 80.728Z" fill="black"/>
</svg>
