<?xml version="1.0" encoding="UTF-8"?><svg id="Layer_2" xmlns="http://www.w3.org/2000/svg" viewBox="0 0 858.99902 303.38086"><g id="Layer_1-2"><path d="m7.72705,76.38525c0-31.79248,0-34-7.72705-34v-1.54541h47.46729v1.54541c-7.72705,0-7.72705,2.20752-7.72705,34v68c0,31.79199,0,34,7.72705,34v1.54541H0v-1.54541c7.72705,0,7.72705-2.20801,7.72705-34v-68Z"/><path d="m83.89258,179.93066h-38.85742v-1.54541c5.74023,0,5.96143-3.09082,5.96143-9.93506v-97.14307c0-8.83105-.8833-10.15576-6.62354-10.15576v-1.54541h34.2207c-.2207,8.16895,0,16.3374,0,28.70117h1.104c.8833-24.50635,6.40283-30.68848,19.87012-30.68848,14.35059,0,18.98682,8.83154,18.76611,29.14307v81.68848c0,6.84424.44189,9.93506,5.96143,9.93506v1.54541h-38.63672v-1.54541c2.42871,0,2.87012-2.87012,2.87012-9.93506v-82.79248c0-8.16846-.88281-9.93506-3.09082-9.93506-2.64941,0-4.63623,1.54541-4.63623,14.79248v77.93506c0,7.06494.44141,9.93506,3.09082,9.93506v1.54541Z"/><path d="m181.24854,59.60596h7.94775v1.54541h-7.94775v93.16895c0,7.72705.66211,8.83105,2.42822,8.83105,1.54541,0,2.87012-1.98682,3.09082-30.68848,0-5.29834-.2207-16.1167-.44141-23.18164h1.9873v23.40283c-.44189,41.94775-3.31201,48.57129-17.8833,48.57129-11.48047,0-18.76611-4.41553-18.76611-27.15576V61.15137h-4.85742v-1.54541c20.31201,0,31.57178-9.05225,33.11719-27.59766h1.32471v27.59766Z"/><path d="m226.28516,179.93066h-38.85742v-1.32471c5.07812,0,5.96143-2.42871,5.96143-10.15576V45.69678c0-8.38965-.8833-10.81836-5.74023-10.81836v-1.54541c11.70117-.66211,24.06494-1.98682,35.32471-4.19482-.8833,19.20801-1.9873,37.53271-1.9873,59.16895h1.104c.8833-23.84424,6.18164-30.68848,19.87012-30.68848,14.35059,0,18.98682,8.83154,18.76611,29.14307v81.68848c0,7.72705.6626,10.15576,5.96143,10.15576v1.32471h-38.63672v-1.32471c2.42871,0,2.87012-3.09082,2.87012-10.15576v-82.79248c0-8.16846-.88281-9.93506-3.09082-9.93506-2.64941,0-4.63623,1.54541-4.63623,14.79248v77.93506c0,7.06494.44141,10.15576,3.09082,10.15576v1.32471Z"/><path d="m302.229,181.25537c-24.50684,0-36.42871-11.03906-36.42871-62.48047,0-49.01318,8.38965-60.93506,34.44141-60.93506,25.83154,0,31.79248,14.79199,31.79248,47.90918v12.80518h-35.7666c.8833,35.32471,5.51953,40.84375,17.6626,40.84375,10.15576,0,16.55859-6.62305,16.33789-35.76611h1.76611c0,34.6626-3.75342,57.62354-29.80518,57.62354Zm-5.96143-64.24707h8.38965c0-52.54541-1.54541-57.62305-4.63623-57.62305-2.64941,0-3.75342,3.75293-3.75342,48.57129v9.05176Z"/><path d="m363.59766,40.83984h67.33789v1.54541c-3.09131,9.05176-8.83154,24.72705-24.06494,85l-12.80518,51h.66211c12.58447,0,24.72754-40.84424,34.2207-79.92236h1.32471c-.66211,27.81836-.66211,53.20801,0,81.46777h-70.64941v-1.54541c3.53271-9.93506,8.83105-26.71436,19.42871-66.67529l18.32471-69.32471h-1.32471c-12.36377,0-22.96094,45.92188-30.90918,76.61035h-1.54541c.2207-26.71436.2207-51,0-78.15576Z"/><path d="m469.5708,181.25537c-24.50684,0-36.42871-11.03906-36.42871-62.48047,0-49.01318,8.38965-60.93506,34.44141-60.93506,25.83154,0,31.79248,14.79199,31.79248,47.90918v12.80518h-35.7666c.8833,35.32471,5.51953,40.84375,17.6626,40.84375,10.15576,0,16.55859-6.62305,16.33789-35.76611h1.76611c0,34.6626-3.75342,57.62354-29.80518,57.62354Zm-5.96143-64.24707h8.38965c0-52.54541-1.54541-57.62305-4.63623-57.62305-2.64941,0-3.75342,3.75293-3.75342,48.57129v9.05176Z"/><path d="m498.48779,179.93066v-1.54541c5.29883,0,6.18213-3.97412,6.18213-13.02588v-91.18213c0-9.27246-1.104-13.02588-7.72754-13.02588v-1.54541h37.53271v105.75342c0,9.05176,1.104,13.02588,6.40234,13.02588v1.54541h-42.38965Zm39.07812-137.7666c0,9.05225-6.84424,13.46777-18.54541,13.46777-11.48047,0-18.32471-4.41553-18.32471-13.46777,0-9.27246,6.84424-13.68799,18.32471-13.68799,11.70117,0,18.54541,4.63623,18.54541,13.68799Z"/><path d="m571.78564,59.60596h7.94775v1.54541h-7.94775v93.16895c0,7.72705.66211,8.83105,2.42822,8.83105,1.54541,0,2.87012-1.98682,3.09082-30.68848,0-5.29834-.2207-16.1167-.44141-23.18164h1.9873v23.40283c-.44189,41.94775-3.31201,48.57129-17.8833,48.57129-11.48047,0-18.76611-4.41553-18.76611-27.15576V61.15137h-4.85742v-1.54541c20.31201,0,31.57178-9.05225,33.11719-27.59766h1.32471v27.59766Z"/><path d="m581.49756,199.13867c0-3.09131,3.31152-4.85742,8.38965-5.51953l.2207-.44189c-7.06494-2.20752-11.25977-5.74023-11.25977-16.3374,0-11.03906,6.18164-18.32471,17.6626-18.32471,5.51904,0,8.83105,0,15.0127.2207v-1.32471c-21.85693-.2207-30.02588-12.80518-30.02588-46.14307,0-39.96094,8.83105-52.76611,33.55859-52.76611,5.07764,0,10.59717.44141,14.57129.44141,1.104,0,1.54541-.44141,1.54541-1.10352,0-1.104-1.54541-1.5459-3.31152-2.20801-2.87012-1.32471-5.51953-3.53223-5.51953-8.83105,0-6.40283,4.41553-11.03906,13.02588-11.03906,9.71436,0,13.46777,4.85693,13.46777,12.36377,0,7.94775-5.07812,12.80518-13.24707,12.80518-4.19482,0-9.05176-.8833-15.896-.8833v1.104c23.62354,1.32471,29.14307,18.104,29.14307,50.33789.2207,35.54541-8.83154,48.57129-33.7793,48.57129-20.09131,0-22.29883,1.32471-22.29883,3.97412,0,1.76611,1.54541,2.64941,3.97412,2.64941,3.75293,0,23.84424-1.104,34.66211-1.104,13.24707,0,19.87012,5.96094,19.87012,18.54541,0,15.67529-6.62305,21.41553-35.32471,21.41553-30.24658,0-34.44141-1.98682-34.44141-6.40234Zm51.2207-4.85742c-11.92188,0-30.02588.6626-36.87012.6626-1.54541,0-3.31152,0-4.85693-.22119.2207,3.97412,2.20752,9.49365,24.94775,9.49365,22.07812,0,23.18213-3.31152,23.18213-5.96094,0-2.20801-1.32471-3.97412-6.40283-3.97412Zm-17.66211-134.23389c-2.87012,0-3.75342,3.31201-3.75342,51.2207,0,45.48096.8833,47.46777,3.75342,47.46777,3.09082,0,3.97412-1.98682,3.97412-47.46777,0-48.12988-.8833-51.2207-3.97412-51.2207Z"/><path d="m687.9082,181.25537c-24.50684,0-36.42871-11.03906-36.42871-62.48047,0-49.01318,8.38965-60.93506,34.44141-60.93506,25.83154,0,31.79199,14.79199,31.79199,47.90918v12.80518h-35.76562c.88281,35.32471,5.51904,40.84375,17.66211,40.84375,10.15576,0,16.55859-6.62305,16.33789-35.76611h1.76562c0,34.6626-3.75293,57.62354-29.80469,57.62354Zm-5.96094-64.24707h8.38916c0-52.54541-1.54541-57.62305-4.63623-57.62305-2.64941,0-3.75293,3.75293-3.75293,48.57129v9.05176Z"/><path d="m716.8252,179.93066v-1.54541c5.29883,0,6.18164-3.97412,6.18164-13.02588v-91.18213c0-9.27246-1.10352-13.02588-7.72656-13.02588v-1.54541h37.53223v105.75342c0,9.05176,1.10352,13.02588,6.40234,13.02588v1.54541h-42.38965Zm39.07812-137.7666c0,9.05225-6.84375,13.46777-18.5459,13.46777-11.48047,0-18.32422-4.41553-18.32422-13.46777,0-9.27246,6.84375-13.68799,18.32422-13.68799,11.70215,0,18.5459,4.63623,18.5459,13.68799Z"/><path d="m779.52539,143.28125c-9.71387-16.33789-21.63672-34.8833-21.63672-56.29883,0-17.44141,7.50684-29.14258,27.81836-29.14258,8.38965,0,16.33789,3.75293,20.75391,3.75293,3.09082,0,4.63574-1.32471,5.07715-4.63623h1.3252c-.66211,18.104-.66211,37.97412,0,55.63623h-1.3252c-9.05176-36.20752-17.2207-53.42822-25.61035-53.42822-3.09082,0-4.41504,2.42822-4.41504,5.96094,0,8.61035,5.51953,18.104,12.58398,29.14258,9.93555,15.67529,21.63672,34.6626,21.63672,56.51953,0,22.29883-10.37695,30.46777-27.81836,30.46777-12.36328,0-19.42871-4.63623-24.06543-4.63623-2.42773,0-3.97363,1.10352-4.19434,4.41553h-1.32422c.88281-18.76611.66211-39.07812,0-58.28564h1.54492c7.06543,22.74023,18.10449,57.18164,26.49316,57.18164,2.42871,0,4.41602-1.54541,4.41602-6.18164,0-9.49365-4.85742-19.64941-11.25977-30.46777Z"/><path d="m850.61133,59.60596h7.94824v1.54541h-7.94824v93.16895c0,7.72705.66211,8.83105,2.42871,8.83105,1.54492,0,2.87012-1.98682,3.09082-30.68848,0-5.29834-.2207-16.1167-.44141-23.18164h1.98633v23.40283c-.44141,41.94775-3.31152,48.57129-17.88281,48.57129-11.48047,0-18.7666-4.41553-18.7666-27.15576V61.15137h-4.85645v-1.54541c20.31152,0,31.57129-9.05225,33.11621-27.59766h1.3252v27.59766Z"/><path d="m38.68213,275.08643c-26.41406,0-36.47119-12.04639-36.47119-36.36084s10.05713-36.47119,36.47119-36.47119c26.5249,0,36.58203,12.82031,36.58203,36.47119s-10.05713,36.36084-36.58203,36.36084Zm0-69.73779c-5.85742,0-8.17822,5.41553-8.06787,33.2666,0,27.74023,2.21045,33.26611,8.06787,33.26611,5.85791,0,8.06787-5.41553,8.17871-33.26611,0-27.85107-2.3208-33.2666-8.17871-33.2666Z"/><path d="m109.19727,221.48438h6.63086v3.09473h-6.63086v39.12402c0,4.6416,1.32617,6.63086,7.95703,6.63086v3.09473c-8.39941-.11035-32.60254-.11035-41.1123,0v-3.09473c6.40967,0,7.51514-1.98926,7.51514-6.63086v-39.12402h-6.07861v-3.09473h16.46729v-1.32617c-11.49414-1.32617-17.24072-4.97314-17.24072-13.59375,0-9.72559,7.62549-15.03027,21.43994-15.03027,14.25732,0,19.34082,5.85693,19.34082,14.91992,0,7.51514-3.64697,11.05176-9.17285,11.05176-7.51514,0-10.27832-4.86279-10.27832-10.72021,0-7.29443,4.6416-10.27783,9.0625-10.27783.88428,0,1.76855,0,2.65234.22021l.22119-.8833c-1.54736-.77393-3.09473-.99463-4.75244-.99463-7.07324,0-12.26709,3.42529-12.26709,12.59863,0,9.17285,5.52539,14.03564,16.24609,14.03564Z"/><path d="m149.31738,221.48438h6.63086v3.09473h-6.63086v39.12402c0,4.6416,1.32617,6.63086,7.95703,6.63086v3.09473c-8.39941-.11035-32.60303-.11035-41.11279,0v-3.09473c6.40967,0,7.51514-1.98926,7.51514-6.63086v-39.12402h-6.07861v-3.09473h16.46729v-1.32617c-11.49414-1.32617-17.24072-4.97314-17.24072-13.59375,0-9.72559,7.62549-15.03027,21.44043-15.03027,14.25732,0,19.34082,5.85693,19.34082,14.91992,0,7.51514-3.64697,11.05176-9.17285,11.05176-7.51514,0-10.27832-4.86279-10.27832-10.72021,0-7.29443,4.6416-10.27783,9.0625-10.27783.88428,0,1.76855,0,2.65234.22021l.22119-.8833c-1.54736-.77393-3.09473-.99463-4.75244-.99463-7.07324,0-12.26758,3.42529-12.26758,12.59863,0,9.17285,5.52588,14.03564,16.24658,14.03564Z"/><path d="m210.21631,213.1958h10.05713v3.20508h-10.05713v39.12354c0,7.62598.55273,9.28369,2.65234,9.28369,1.76855,0,3.20508-1.98926,3.31543-15.3623,0-1.32617-.11035-6.9624-.2207-8.95166h3.53662c.11035,1.54688.11035,7.84668.11035,9.2832-.22119,18.89893-3.31543,24.75635-16.57764,24.75635-11.38379,0-18.34668-3.20508-18.34668-19.56152v-38.57129h-5.41504v-3.20508c16.02539,0,25.97168-6.2998,28.07178-17.13037h2.87354v17.13037Z"/><path d="m256.41553,273.42871h-35.5874v-3.09473c5.19434,0,6.07861-1.98926,6.07861-6.63086v-55.70166c0-5.08398-.88428-6.63135-5.74707-6.63135v-3.20508c6.7417-.22119,24.97754-1.54736,31.71924-2.65186-.66309,13.48291-2.54199,24.31348-2.65234,37.90771h.88379c1.76855-17.68311,7.40479-21.99365,19.45166-21.99365,13.59375,0,18.67773,7.07324,18.56738,22.104v30.17188c0,4.6416,1.32617,6.63086,6.18896,6.63086v3.09473h-35.5874v-3.09473c3.09473,0,3.75781-1.76807,3.75781-5.85742v-30.17188c0-8.84131-1.43701-11.16211-4.97363-11.16211-2.87305,0-5.96777,2.43115-5.96777,14.58838v26.74561c0,4.08936.66309,5.85742,3.86816,5.85742v3.09473Z"/><path d="m330.79932,274.75488c-19.11963,0-34.03955-5.63623-34.03955-31.93994,0-22.5459,10.27832-31.3877,32.27148-31.3877,22.65625,0,29.39795,11.1626,29.39795,25.75098,0,2.3208-.11035,4.53125-.2207,6.96289-5.96826.11035-24.31445,0-34.92432,0,.88428,13.92529,5.41553,17.9043,16.79883,17.9043,9.28369,0,15.03076-3.64746,14.92041-12.37842h3.31543c0,15.14111-6.18896,25.08789-27.51953,25.08789Zm-7.62549-33.9292h11.82568c-.11084-23.54102-2.32129-26.08301-6.07861-26.08301-3.75781,0-5.74707,2.65283-5.74707,24.4248v1.6582Z"/><path d="m410.82031,251.5459c-15.47314-5.85742-24.2041-13.4834-24.2041-26.63525,0-13.26221,8.51025-22.76709,27.62988-22.76709,10.7207,0,17.9043,5.63672,23.20898,5.63672,2.32129,0,3.64746-1.10547,4.64209-3.979h2.65234c-.33154,6.18945-.33154,22.54639,0,28.62451h-2.87354c-7.18359-13.81494-16.68848-26.74561-27.40869-26.74561-4.19971,0-6.96289,2.32129-6.96289,6.18945,0,4.31006,3.09473,8.17822,13.0415,12.26758,17.02002,6.63086,27.29834,13.59375,27.29834,28.84521,0,15.91504-11.05225,22.104-27.18799,22.104-14.58838,0-22.32471-6.52051-26.85596-6.52051-2.32129,0-3.75781,1.32617-4.19971,4.86279h-2.98438c.55273-6.63135.55273-24.20361.11084-30.94531h2.87354c6.40967,12.04639,19.34082,28.95605,29.5083,28.95605,3.979,0,6.85254-1.43701,6.85254-5.85742,0-5.52637-4.53125-9.61523-15.14111-14.03613Z"/><path d="m483.87695,274.75488c-22.87744,0-31.82959-9.50439-31.6084-31.93994-.11084-21.88281,8.73096-30.94531,31.6084-30.94531s31.71924,9.50439,31.49805,30.94531c.22119,22.21436-8.62061,31.93994-31.49805,31.93994Zm0-59.79102c-3.979,0-5.74707,2.76318-5.74707,27.74023s1.76807,28.8457,5.74707,28.8457c3.75781,0,5.63623-3.97852,5.52588-28.8457,0-24.8667-1.76807-27.74023-5.52588-27.74023Z"/><path d="m548.86523,211.64844c24.31396,0,31.82959,6.41016,31.82959,23.54053,0,5.96826-.22119,15.47266-.22119,20.66699,0,7.73633.33154,9.39453,1.87891,9.39453s2.65234-1.76855,2.21045-18.12549h2.87354c1.32617,22.98828-2.43164,27.40869-14.03613,27.40869-11.82568,0-14.91992-4.53125-15.03076-18.34619h-.99463c-1.32617,12.04688-6.96289,18.34619-18.67773,18.34619-15.14062,0-19.78271-5.30469-19.78271-15.8042,0-11.05176,6.41016-16.57764,20.33545-16.68848,14.58838,0,15.69336-2.7627,15.69336-11.49365v-1.87891c0-9.94678-5.30469-13.4834-14.47803-13.4834-2.20996,0-4.86279.33154-7.62549,1.32617l.33154.99463c1.54736-.33154,2.7627-.44189,3.75732-.44189,6.2998,0,11.49414,3.20508,11.49414,10.05713,0,5.96826-2.98389,10.83105-13.26221,10.83105-7.84619,0-12.93018-3.86816-12.93018-11.05225,0-9.39404,6.74121-15.25146,26.63477-15.25146Zm6.07812,41.00244v-11.16211c-3.86816,3.75732-11.27295,4.08887-11.27295,15.14111,0,5.52588,1.87891,7.18359,5.19482,7.18359,3.75732,0,6.07812-1.98926,6.07812-11.1626Z"/><path d="m627.66943,287.5752h-42.21826v-3.09473c6.07861,0,7.07324-1.98926,7.07324-6.63086v-54.81787c0-5.19434-.88428-6.7417-5.63623-6.7417v-3.09424h29.2876c-.33154,6.07861-.44238,12.04639-.44238,18.45654h.66309c2.32129-16.13574,7.84717-20.2251,18.45703-20.2251,15.14111,0,20.00391,8.95215,19.89355,31.3877.11035,23.09863-8.62061,31.38721-26.74609,31.27686-4.42041,0-7.51514-.88428-9.83594-2.09961v5.85742c0,4.6416,1.54736,6.63086,9.50439,6.63086v3.09473Zm-3.86816-64.43262c-3.09424,0-5.63623,2.7627-5.63623,16.0249v29.17725c1.21582.66309,2.54199.99463,4.08936.99463,5.41504,0,6.85205-2.43115,6.85205-26.63525,0-15.91455-1.43701-19.56152-5.30518-19.56152Z"/><path d="m670.77637,268.12354c-2.87354,0-5.08398,2.21045-5.08398,5.30518h-3.42627v-65.42725c0-5.08398-1.10498-6.63135-6.9624-6.63135v-3.20508c6.9624-.22119,25.75098-1.43701,32.82422-2.65186-.44238,13.81445-1.98975,25.19775-2.1001,35.91797h1.10498c1.54736-14.58838,6.521-20.00391,17.35156-20.00391,15.47314,0,20.2251,8.95215,19.89355,31.27686.22119,22.87793-8.84131,31.3877-29.5083,31.3877-13.92578,0-17.79395-5.96826-24.09326-5.96826Zm28.18213-25.08789c0-16.68799-1.87891-19.89307-5.52588-19.89307-2.09961,0-4.31006,1.65771-5.08398,8.28857l-.11035.11084c-.22119,1.76807-.33154,4.08887-.33154,6.85205v23.54053c0,6.18896.77344,8.8418,5.19434,8.8418,4.31006,0,5.74707-2.54199,5.85742-27.74072Z"/><path d="m760.74219,274.75488c-22.87744,0-31.82959-9.50439-31.6084-31.93994-.11084-21.88281,8.73096-30.94531,31.6084-30.94531s31.71875,9.50439,31.49805,30.94531c.2207,22.21436-8.62012,31.93994-31.49805,31.93994Zm0-59.79102c-3.97852,0-5.74707,2.76318-5.74707,27.74023s1.76855,28.8457,5.74707,28.8457c3.75781,0,5.63672-3.97852,5.52637-28.8457,0-24.8667-1.76855-27.74023-5.52637-27.74023Z"/><path d="m815.01074,273.42871h-21.99414v-3.20508c3.42676-2.76318,10.61035-12.70947,17.57324-27.07715-10.94141-19.67236-14.36816-24.75635-17.24121-26.74561v-3.20508h37.46582v2.98389c-3.09473.88428-3.64648,4.08936-1.21582,8.50977l8.73145,16.35693c3.53613-10.27832,2.87305-21.55127-2.43164-24.64551v-3.20508h22.21484v3.20508c-4.08984,2.7627-9.94727,12.59912-17.13086,26.85596,11.05176,20.2251,14.25684,24.646,17.57227,26.9668v3.20508h-38.23926v-3.09473c3.31543-.99463,4.31055-3.64697,1.21582-9.0625l-8.17871-16.13574c-3.86816,10.49951-3.75781,21.44092,1.6582,25.08789v3.20508Z"/></g></svg>