<svg width="243" height="25" viewBox="0 0 243 25" fill="none" xmlns="http://www.w3.org/2000/svg">
<path d="M3.864 13.6C3.368 13.008 2.856 12.496 2.328 12.064C1.8 11.632 1.256 11.28 0.696 11.008V10.576C1.8 10.016 2.856 9.152 3.864 7.984H4.704C4.448 8.528 4.192 9.008 3.936 9.424C3.68 9.824 3.432 10.16 3.192 10.432V11.152C3.432 11.408 3.68 11.744 3.936 12.16C4.192 12.56 4.448 13.04 4.704 13.6H3.864ZM3.072 11.296V10.288H17.304V11.296H3.072ZM27.7383 2.07812C28.8789 1.97656 29.9844 1.90625 31.0547 1.86719C32.125 1.82031 33.1836 1.79688 34.2305 1.79688C35.2773 1.79688 36.4141 1.82422 37.6406 1.87891C38.8672 1.92578 40.207 2 41.6602 2.10156L41.8008 2.34766L40.6992 5.19531L40.3125 5.07812C40.3672 4.80469 40.4062 4.55078 40.4297 4.31641C40.4609 4.07422 40.4766 3.84766 40.4766 3.63672C40.4766 3.34766 40.4531 3.08594 40.4062 2.85156C39.4141 2.78906 38.5195 2.74219 37.7227 2.71094C36.9336 2.67969 36.2305 2.66016 35.6133 2.65234V16.8906C35.6133 17.2109 35.6406 17.4844 35.6953 17.7109C35.7578 17.9375 35.8594 18.1289 36 18.2852C36.1406 18.4414 36.3281 18.5703 36.5625 18.6719C36.7969 18.7656 37.0938 18.8438 37.4531 18.9062L37.3594 19.1875C36.8906 19.125 36.4844 19.0781 36.1406 19.0469C35.7969 19.0156 35.5078 19 35.2734 19C35.0547 19 34.8086 19.0156 34.5352 19.0469C34.2695 19.0781 33.9727 19.125 33.6445 19.1875L33.5742 19.0703C33.7305 18.8438 33.8086 18.4297 33.8086 17.8281V2.65234C33.2148 2.66016 32.5195 2.67969 31.7227 2.71094C30.9258 2.74219 30.0156 2.78906 28.9922 2.85156C28.9453 3.10938 28.9219 3.38281 28.9219 3.67188C28.9219 4.08594 28.9766 4.55469 29.0859 5.07812L28.6992 5.19531L27.5977 2.34766L27.7383 2.07812ZM53.2031 10.8203C53.2031 10.1641 53.1406 9.62891 53.0156 9.21484C52.8906 8.79297 52.7188 8.46484 52.5 8.23047C52.2891 7.98828 52.0391 7.82031 51.75 7.72656C51.4688 7.63281 51.168 7.58594 50.8477 7.58594C50.457 7.58594 50.0898 7.62109 49.7461 7.69141C49.4102 7.76172 49.0703 7.87109 48.7266 8.01953C48.3906 8.16016 48.0469 8.33984 47.6953 8.55859C47.3438 8.76953 46.9648 9.01953 46.5586 9.30859V17.3945C46.5586 17.6445 46.5781 17.8477 46.6172 18.0039C46.6562 18.1523 46.7383 18.2773 46.8633 18.3789C46.9883 18.4805 47.1641 18.5703 47.3906 18.6484C47.6172 18.7266 47.9141 18.8125 48.2812 18.9062L48.1875 19.1875C47.7344 19.125 47.3477 19.0781 47.0273 19.0469C46.7148 19.0156 46.3984 19 46.0781 19C45.7578 19 45.3008 19.0625 44.707 19.1875L44.6367 19.0703C44.793 18.8438 44.8711 18.4297 44.8711 17.8281V3.78906C44.8711 3.26562 44.8438 2.82812 44.7891 2.47656C44.7422 2.125 44.6523 1.84375 44.5195 1.63281C44.3945 1.42188 44.2188 1.27344 43.9922 1.1875C43.7656 1.10156 43.5234 1.05859 43.2656 1.05859C43.0156 1.05859 42.8633 1.0625 42.8086 1.07031L42.7617 0.859375C44.0352 0.476562 45.2188 0.285156 46.3125 0.285156C46.4766 0.699219 46.5586 1.14453 46.5586 1.62109V8.48828C47.0977 8.12109 47.5859 7.82031 48.0234 7.58594C48.4688 7.34375 48.8828 7.15234 49.2656 7.01172C49.6562 6.87109 50.0234 6.77344 50.3672 6.71875C50.7188 6.66406 51.0742 6.63672 51.4336 6.63672C51.9258 6.63672 52.375 6.70312 52.7812 6.83594C53.1953 6.96094 53.5508 7.17188 53.8477 7.46875C54.1445 7.75781 54.3828 8.14062 54.5625 8.61719C54.7422 9.09375 54.8477 9.68359 54.8789 10.3867V17.6758C54.8789 17.8633 54.9219 18.0195 55.0078 18.1445C55.1016 18.2695 55.2188 18.375 55.3594 18.4609C55.5078 18.5469 55.6758 18.6211 55.8633 18.6836C56.0508 18.7383 56.2461 18.7969 56.4492 18.8594L56.3438 19.1406C55.9062 19.0469 55.3945 19 54.8086 19C54.2227 19 53.6328 19.0625 53.0391 19.1875L52.9688 19.0703C53.125 18.8438 53.2031 18.4297 53.2031 17.8281V10.8203ZM58.7344 13.293C58.7344 12.4648 58.8711 11.6641 59.1445 10.8906C59.418 10.1094 59.8086 9.41797 60.3164 8.81641C60.8242 8.20703 61.4375 7.72266 62.1562 7.36328C62.8828 6.99609 63.6953 6.8125 64.5938 6.8125C65.1562 6.8125 65.6875 6.91016 66.1875 7.10547C66.6875 7.29297 67.1211 7.58984 67.4883 7.99609C67.8633 8.39453 68.1562 8.91016 68.3672 9.54297C68.5859 10.168 68.6953 10.9141 68.6953 11.7812L68.2383 12.2031H60.5859C60.5703 12.3359 60.5625 12.4648 60.5625 12.5898C60.5625 12.7148 60.5625 12.8398 60.5625 12.9648C60.5625 13.8164 60.6602 14.5898 60.8555 15.2852C61.0586 15.9805 61.3281 16.5781 61.6641 17.0781C62.0078 17.5703 62.4102 17.9531 62.8711 18.2266C63.332 18.5 63.8203 18.6367 64.3359 18.6367C64.6641 18.6367 64.9961 18.6133 65.332 18.5664C65.6758 18.5117 66.0078 18.4297 66.3281 18.3203C66.6562 18.2109 66.9727 18.0703 67.2773 17.8984C67.582 17.7266 67.8633 17.5195 68.1211 17.2773L68.6016 17.7812C67.9844 18.3906 67.3125 18.8242 66.5859 19.082C65.8594 19.3477 65.0195 19.4805 64.0664 19.4805C63.3164 19.4805 62.6133 19.3359 61.957 19.0469C61.3086 18.7578 60.7461 18.3438 60.2695 17.8047C59.793 17.2656 59.418 16.6172 59.1445 15.8594C58.8711 15.0938 58.7344 14.2383 58.7344 13.293ZM64.3359 7.62109C63.125 7.62109 62.2383 7.9375 61.6758 8.57031C61.1133 9.19531 60.7734 10.0977 60.6562 11.2773H67.1836C67.1211 9.99609 66.832 9.06641 66.3164 8.48828C65.8086 7.91016 65.1484 7.62109 64.3359 7.62109ZM81.6211 3.58984V16.8906C81.6211 17.5234 81.75 17.9844 82.0078 18.2734C82.2656 18.5625 82.7539 18.7734 83.4727 18.9062L83.3672 19.1875C82.4766 19.0625 81.7734 19 81.2578 19C80.7969 19 80.2617 19.0625 79.6523 19.1875L79.582 19.0703C79.7383 18.8438 79.8164 18.4297 79.8164 17.8281V5.51172C79.8164 4.40234 79.6875 3.67578 79.4297 3.33203C79.1797 2.98047 78.6211 2.80469 77.7539 2.80469L77.707 2.46484C79.8789 2.14453 81.625 1.98438 82.9453 1.98438C83.8516 1.98438 84.6523 2.05078 85.3477 2.18359C86.0508 2.31641 86.6836 2.53906 87.2461 2.85156C87.8086 3.15625 88.2383 3.58203 88.5352 4.12891C88.8398 4.67578 88.9922 5.33594 88.9922 6.10938C88.9922 6.96094 88.7148 7.73828 88.1602 8.44141C87.6133 9.13672 86.9297 9.66797 86.1094 10.0352C85.2969 10.3945 84.4648 10.5742 83.6133 10.5742C83.2773 10.5742 83.0273 10.5586 82.8633 10.5273V10.1172C83.457 10.1172 84.0039 10.0391 84.5039 9.88281C85.0117 9.72656 85.4609 9.49219 85.8516 9.17969C86.25 8.86719 86.5586 8.45703 86.7773 7.94922C87.0039 7.43359 87.1172 6.84375 87.1172 6.17969C87.1172 5.10938 86.8477 4.26172 86.3086 3.63672C85.7695 3.01172 84.9258 2.69922 83.7773 2.69922C82.9336 2.69922 82.1914 2.75 81.5508 2.85156C81.5977 3.08594 81.6211 3.33203 81.6211 3.58984ZM97.1016 6.8125C98.8984 6.8125 100.309 7.36328 101.332 8.46484C102.355 9.56641 102.867 11.1016 102.867 13.0703C102.867 14.2109 102.605 15.2734 102.082 16.2578C101.559 17.2422 100.848 18.0273 99.9492 18.6133C99.0508 19.1914 98.0781 19.4805 97.0312 19.4805C95.2266 19.4805 93.8125 18.9375 92.7891 17.8516C91.7734 16.7578 91.2656 15.2109 91.2656 13.2109C91.2656 12.0234 91.5273 10.9414 92.0508 9.96484C92.5742 8.98047 93.2812 8.21094 94.1719 7.65625C95.0703 7.09375 96.0469 6.8125 97.1016 6.8125ZM96.8672 7.62109C96.25 7.62109 95.7148 7.71094 95.2617 7.89062C94.8086 8.07031 94.4453 8.3125 94.1719 8.61719C93.8984 8.92188 93.6797 9.30859 93.5156 9.77734C93.3516 10.2461 93.2383 10.7266 93.1758 11.2188C93.1211 11.7109 93.0938 12.2812 93.0938 12.9297C93.0938 13.9609 93.2148 14.8633 93.457 15.6367C93.707 16.4023 94.0391 17 94.4531 17.4297C94.8672 17.8516 95.3086 18.1641 95.7773 18.3672C96.2461 18.5625 96.7422 18.6602 97.2656 18.6602C97.875 18.6602 98.4062 18.5664 98.8594 18.3789C99.3203 18.1836 99.6875 17.9336 99.9609 17.6289C100.234 17.3164 100.453 16.9258 100.617 16.457C100.781 15.9805 100.891 15.5 100.945 15.0156C101.008 14.5312 101.039 13.9805 101.039 13.3633C101.039 12.4961 100.957 11.7227 100.793 11.043C100.629 10.3633 100.41 9.8125 100.137 9.39062C99.8711 8.96875 99.5508 8.62109 99.1758 8.34766C98.8086 8.07422 98.4375 7.88672 98.0625 7.78516C97.6875 7.67578 97.2891 7.62109 96.8672 7.62109ZM108.457 16.8906C108.457 17.5078 108.602 17.9648 108.891 18.2617C109.18 18.5586 109.691 18.7734 110.426 18.9062L110.332 19.1875C109.434 19.0625 108.738 19 108.246 19C107.762 19 107.215 19.0625 106.605 19.1875L106.535 19.0703C106.691 18.8438 106.77 18.4297 106.77 17.8281V3.78906C106.77 2.67969 106.637 1.9375 106.371 1.5625C106.113 1.17969 105.559 1.01562 104.707 1.07031L104.66 0.859375C105.949 0.476562 107.133 0.285156 108.211 0.285156C108.375 0.691406 108.457 1.13672 108.457 1.62109V16.8906ZM113.965 10.3164C113.965 9.20703 113.832 8.46484 113.566 8.08984C113.309 7.70703 112.754 7.54297 111.902 7.59766L111.855 7.38672C113.145 7.00391 114.328 6.8125 115.406 6.8125C115.57 7.21875 115.652 7.66406 115.652 8.14844V16.8906C115.652 17.5078 115.797 17.9648 116.086 18.2617C116.375 18.5586 116.887 18.7734 117.621 18.9062L117.527 19.1875C116.629 19.0625 115.934 19 115.441 19C114.957 19 114.41 19.0625 113.801 19.1875L113.73 19.0703C113.887 18.8438 113.965 18.4297 113.965 17.8281V10.3164ZM112.77 2.46484C113.512 2.03516 114.352 1.67578 115.289 1.38672C115.289 2.03516 115.395 2.67578 115.605 3.30859L115.453 3.51953C114.711 3.56641 113.938 3.77344 113.133 4.14062C112.938 3.60156 112.816 3.04297 112.77 2.46484ZM122.73 15.7656C122.73 16.8281 122.848 17.5625 123.082 17.9688C123.316 18.3672 123.695 18.5664 124.219 18.5664C124.789 18.5664 125.484 18.3516 126.305 17.9219L126.668 18.4258C125.379 19.1289 124.324 19.4805 123.504 19.4805C123.066 19.4805 122.711 19.4414 122.438 19.3633C122.164 19.2852 121.914 19.1328 121.688 18.9062C121.461 18.6797 121.297 18.3477 121.195 17.9102C121.102 17.4648 121.055 16.8906 121.055 16.1875V8.24219L119.297 8.34766V7.59766C119.914 7.46484 120.5 7.37891 121.055 7.33984V5.67578C121.719 5.30078 122.262 4.76562 122.684 4.07031L123.047 4.21094C122.914 4.52344 122.828 4.87891 122.789 5.27734C122.75 5.66797 122.73 6.33203 122.73 7.26953H126.762V7.67969C126.434 7.8125 126.102 7.92578 125.766 8.01953C125.43 8.10547 125.082 8.14844 124.723 8.14844H122.73V15.7656ZM130.066 10.3164C130.066 9.20703 129.934 8.46484 129.668 8.08984C129.41 7.70703 128.855 7.54297 128.004 7.59766L127.957 7.38672C129.246 7.00391 130.43 6.8125 131.508 6.8125C131.672 7.21875 131.754 7.66406 131.754 8.14844V16.8906C131.754 17.5078 131.898 17.9648 132.188 18.2617C132.477 18.5586 132.988 18.7734 133.723 18.9062L133.629 19.1875C132.73 19.0625 132.035 19 131.543 19C131.059 19 130.512 19.0625 129.902 19.1875L129.832 19.0703C129.988 18.8438 130.066 18.4297 130.066 17.8281V10.3164ZM128.871 2.46484C129.613 2.03516 130.453 1.67578 131.391 1.38672C131.391 2.03516 131.496 2.67578 131.707 3.30859L131.555 3.51953C130.812 3.56641 130.039 3.77344 129.234 4.14062C129.039 3.60156 128.918 3.04297 128.871 2.46484ZM141.059 19.4805C140.238 19.4805 139.477 19.3164 138.773 18.9883C138.07 18.6602 137.484 18.2227 137.016 17.6758C136.547 17.1211 136.18 16.4922 135.914 15.7891C135.648 15.0781 135.516 14.3398 135.516 13.5742C135.516 12.4805 135.676 11.5 135.996 10.6328C136.316 9.76562 136.762 9.05859 137.332 8.51172C137.902 7.95703 138.566 7.53516 139.324 7.24609C140.09 6.95703 140.926 6.8125 141.832 6.8125C142.832 6.8125 143.863 6.99609 144.926 7.36328L144.164 10.2344L143.73 10.1172C143.816 9.29688 143.793 8.59375 143.66 8.00781C142.785 7.75 141.992 7.62109 141.281 7.62109C139.906 7.62109 138.906 8.07031 138.281 8.96875C137.656 9.85938 137.344 11.1797 137.344 12.9297C137.344 14.5625 137.723 15.9219 138.48 17.0078C139.246 18.0938 140.211 18.6367 141.375 18.6367C142.82 18.6367 143.996 18.1836 144.902 17.2773L145.383 17.7812C144.797 18.3906 144.156 18.8242 143.461 19.082C142.773 19.3477 141.973 19.4805 141.059 19.4805ZM155.191 16.2695C155.191 16.832 155.078 17.3164 154.852 17.7227C154.625 18.1289 154.32 18.4648 153.938 18.7305C153.562 18.9883 153.121 19.1758 152.613 19.293C152.113 19.418 151.586 19.4805 151.031 19.4805C149.688 19.4805 148.426 19.1992 147.246 18.6367C147.395 18.1211 147.543 17.6445 147.691 17.207C147.84 16.7617 147.992 16.3516 148.148 15.9766L148.488 16.0938C148.418 16.4375 148.383 16.7695 148.383 17.0898C148.383 17.4023 148.395 17.6875 148.418 17.9453C148.66 18.0703 148.887 18.1797 149.098 18.2734C149.309 18.3594 149.52 18.4336 149.73 18.4961C149.941 18.5508 150.168 18.5938 150.41 18.625C150.652 18.6484 150.934 18.6602 151.254 18.6602C151.73 18.6602 152.125 18.6289 152.438 18.5664C152.75 18.5039 152.992 18.3984 153.164 18.25C153.344 18.0938 153.469 17.8906 153.539 17.6406C153.609 17.3828 153.645 17.0664 153.645 16.6914C153.645 16.4023 153.594 16.1328 153.492 15.8828C153.398 15.625 153.23 15.3711 152.988 15.1211C152.754 14.8711 152.438 14.6133 152.039 14.3477C151.648 14.0742 151.16 13.7773 150.574 13.457C149.629 12.8945 148.914 12.3359 148.43 11.7812C147.945 11.2188 147.703 10.6172 147.703 9.97656C147.703 9.46875 147.809 9.01953 148.02 8.62891C148.23 8.23047 148.516 7.89844 148.875 7.63281C149.242 7.35938 149.668 7.15625 150.152 7.02344C150.637 6.88281 151.148 6.8125 151.688 6.8125C151.961 6.8125 152.246 6.83203 152.543 6.87109C152.848 6.91016 153.141 6.96875 153.422 7.04688C153.703 7.11719 153.965 7.20703 154.207 7.31641C154.457 7.41797 154.672 7.53516 154.852 7.66797C154.602 8.69141 154.297 9.58984 153.938 10.3633L153.598 10.2344C153.613 10.0078 153.625 9.73047 153.633 9.40234C153.641 9.06641 153.645 8.67188 153.645 8.21875C153.137 7.82031 152.434 7.62109 151.535 7.62109C151.09 7.62109 150.711 7.64844 150.398 7.70312C150.094 7.75781 149.848 7.85156 149.66 7.98438C149.473 8.11719 149.336 8.30078 149.25 8.53516C149.172 8.76172 149.133 9.05078 149.133 9.40234C149.133 9.66016 149.168 9.90234 149.238 10.1289C149.309 10.3477 149.434 10.5664 149.613 10.7852C149.793 10.9961 150.035 11.2148 150.34 11.4414C150.652 11.6602 151.051 11.8984 151.535 12.1562C152.293 12.5703 152.906 12.9336 153.375 13.2461C153.852 13.5586 154.223 13.8672 154.488 14.1719C154.762 14.4688 154.945 14.7812 155.039 15.1094C155.141 15.4375 155.191 15.8242 155.191 16.2695ZM166.254 18.1094C167.113 18.5469 167.961 18.7656 168.797 18.7656C169.305 18.7656 169.773 18.6914 170.203 18.543C170.641 18.3867 171.016 18.1562 171.328 17.8516C171.648 17.5469 171.898 17.1719 172.078 16.7266C172.258 16.2734 172.348 15.75 172.348 15.1562C172.348 14.7109 172.301 14.3242 172.207 13.9961C172.113 13.6602 171.934 13.3359 171.668 13.0234C171.402 12.7031 171.031 12.3633 170.555 12.0039C170.078 11.6445 169.453 11.2148 168.68 10.7148C167.445 9.91016 166.543 9.13672 165.973 8.39453C165.41 7.65234 165.129 6.89844 165.129 6.13281C165.129 5.38281 165.285 4.72656 165.598 4.16406C165.91 3.59375 166.32 3.12109 166.828 2.74609C167.344 2.36328 167.922 2.07812 168.562 1.89062C169.211 1.69531 169.867 1.59766 170.531 1.59766C171.727 1.59766 172.797 1.87109 173.742 2.41797C173.523 3.62891 173.141 4.80469 172.594 5.94531L172.277 5.78125C172.324 5.48438 172.359 5.20312 172.383 4.9375C172.414 4.66406 172.43 4.41016 172.43 4.17578C172.43 3.93359 172.418 3.71484 172.395 3.51953C172.371 3.31641 172.34 3.125 172.301 2.94531C171.676 2.57813 171.004 2.39453 170.285 2.39453C169.832 2.39453 169.398 2.46484 168.984 2.60547C168.578 2.73828 168.219 2.9375 167.906 3.20312C167.594 3.46875 167.344 3.79688 167.156 4.1875C166.969 4.57031 166.875 5.01172 166.875 5.51172C166.875 5.86328 166.938 6.19141 167.062 6.49609C167.188 6.80078 167.379 7.10547 167.637 7.41016C167.902 7.71484 168.23 8.03125 168.621 8.35938C169.02 8.6875 169.488 9.05078 170.027 9.44922C170.348 9.68359 170.648 9.89844 170.93 10.0938C171.211 10.2812 171.473 10.4609 171.715 10.6328C171.957 10.8047 172.18 10.9727 172.383 11.1367C172.594 11.3008 172.789 11.4766 172.969 11.6641C173.836 12.5781 174.27 13.6406 174.27 14.8516C174.27 15.6641 174.125 16.3633 173.836 16.9492C173.555 17.5352 173.168 18.0156 172.676 18.3906C172.184 18.7656 171.609 19.0391 170.953 19.2109C170.297 19.3906 169.602 19.4805 168.867 19.4805C167.547 19.4805 166.195 19.2148 164.812 18.6836C165.055 17.4258 165.438 16.25 165.961 15.1562L166.277 15.332C166.184 15.7695 166.137 16.3047 166.137 16.9375C166.137 17.5703 166.176 17.9609 166.254 18.1094ZM183.328 6.8125C185.125 6.8125 186.535 7.36328 187.559 8.46484C188.582 9.56641 189.094 11.1016 189.094 13.0703C189.094 14.2109 188.832 15.2734 188.309 16.2578C187.785 17.2422 187.074 18.0273 186.176 18.6133C185.277 19.1914 184.305 19.4805 183.258 19.4805C181.453 19.4805 180.039 18.9375 179.016 17.8516C178 16.7578 177.492 15.2109 177.492 13.2109C177.492 12.0234 177.754 10.9414 178.277 9.96484C178.801 8.98047 179.508 8.21094 180.398 7.65625C181.297 7.09375 182.273 6.8125 183.328 6.8125ZM183.094 7.62109C182.477 7.62109 181.941 7.71094 181.488 7.89062C181.035 8.07031 180.672 8.3125 180.398 8.61719C180.125 8.92188 179.906 9.30859 179.742 9.77734C179.578 10.2461 179.465 10.7266 179.402 11.2188C179.348 11.7109 179.32 12.2812 179.32 12.9297C179.32 13.9609 179.441 14.8633 179.684 15.6367C179.934 16.4023 180.266 17 180.68 17.4297C181.094 17.8516 181.535 18.1641 182.004 18.3672C182.473 18.5625 182.969 18.6602 183.492 18.6602C184.102 18.6602 184.633 18.5664 185.086 18.3789C185.547 18.1836 185.914 17.9336 186.188 17.6289C186.461 17.3164 186.68 16.9258 186.844 16.457C187.008 15.9805 187.117 15.5 187.172 15.0156C187.234 14.5312 187.266 13.9805 187.266 13.3633C187.266 12.4961 187.184 11.7227 187.02 11.043C186.855 10.3633 186.637 9.8125 186.363 9.39062C186.098 8.96875 185.777 8.62109 185.402 8.34766C185.035 8.07422 184.664 7.88672 184.289 7.78516C183.914 7.67578 183.516 7.62109 183.094 7.62109ZM197.027 19.4805C196.207 19.4805 195.445 19.3164 194.742 18.9883C194.039 18.6602 193.453 18.2227 192.984 17.6758C192.516 17.1211 192.148 16.4922 191.883 15.7891C191.617 15.0781 191.484 14.3398 191.484 13.5742C191.484 12.4805 191.645 11.5 191.965 10.6328C192.285 9.76562 192.73 9.05859 193.301 8.51172C193.871 7.95703 194.535 7.53516 195.293 7.24609C196.059 6.95703 196.895 6.8125 197.801 6.8125C198.801 6.8125 199.832 6.99609 200.895 7.36328L200.133 10.2344L199.699 10.1172C199.785 9.29688 199.762 8.59375 199.629 8.00781C198.754 7.75 197.961 7.62109 197.25 7.62109C195.875 7.62109 194.875 8.07031 194.25 8.96875C193.625 9.85938 193.312 11.1797 193.312 12.9297C193.312 14.5625 193.691 15.9219 194.449 17.0078C195.215 18.0938 196.18 18.6367 197.344 18.6367C198.789 18.6367 199.965 18.1836 200.871 17.2773L201.352 17.7812C200.766 18.3906 200.125 18.8242 199.43 19.082C198.742 19.3477 197.941 19.4805 197.027 19.4805ZM204.598 10.3164C204.598 9.20703 204.465 8.46484 204.199 8.08984C203.941 7.70703 203.387 7.54297 202.535 7.59766L202.488 7.38672C203.777 7.00391 204.961 6.8125 206.039 6.8125C206.203 7.21875 206.285 7.66406 206.285 8.14844V16.8906C206.285 17.5078 206.43 17.9648 206.719 18.2617C207.008 18.5586 207.52 18.7734 208.254 18.9062L208.16 19.1875C207.262 19.0625 206.566 19 206.074 19C205.59 19 205.043 19.0625 204.434 19.1875L204.363 19.0703C204.52 18.8438 204.598 18.4297 204.598 17.8281V10.3164ZM203.402 2.46484C204.145 2.03516 204.984 1.67578 205.922 1.38672C205.922 2.03516 206.027 2.67578 206.238 3.30859L206.086 3.51953C205.344 3.56641 204.57 3.77344 203.766 4.14062C203.57 3.60156 203.449 3.04297 203.402 2.46484ZM210.047 13.293C210.047 12.4648 210.184 11.6641 210.457 10.8906C210.73 10.1094 211.121 9.41797 211.629 8.81641C212.137 8.20703 212.75 7.72266 213.469 7.36328C214.195 6.99609 215.008 6.8125 215.906 6.8125C216.469 6.8125 217 6.91016 217.5 7.10547C218 7.29297 218.434 7.58984 218.801 7.99609C219.176 8.39453 219.469 8.91016 219.68 9.54297C219.898 10.168 220.008 10.9141 220.008 11.7812L219.551 12.2031H211.898C211.883 12.3359 211.875 12.4648 211.875 12.5898C211.875 12.7148 211.875 12.8398 211.875 12.9648C211.875 13.8164 211.973 14.5898 212.168 15.2852C212.371 15.9805 212.641 16.5781 212.977 17.0781C213.32 17.5703 213.723 17.9531 214.184 18.2266C214.645 18.5 215.133 18.6367 215.648 18.6367C215.977 18.6367 216.309 18.6133 216.645 18.5664C216.988 18.5117 217.32 18.4297 217.641 18.3203C217.969 18.2109 218.285 18.0703 218.59 17.8984C218.895 17.7266 219.176 17.5195 219.434 17.2773L219.914 17.7812C219.297 18.3906 218.625 18.8242 217.898 19.082C217.172 19.3477 216.332 19.4805 215.379 19.4805C214.629 19.4805 213.926 19.3359 213.27 19.0469C212.621 18.7578 212.059 18.3438 211.582 17.8047C211.105 17.2656 210.73 16.6172 210.457 15.8594C210.184 15.0938 210.047 14.2383 210.047 13.293ZM215.648 7.62109C214.438 7.62109 213.551 7.9375 212.988 8.57031C212.426 9.19531 212.086 10.0977 211.969 11.2773H218.496C218.434 9.99609 218.145 9.06641 217.629 8.48828C217.121 7.91016 216.461 7.62109 215.648 7.62109ZM225.738 15.7656C225.738 16.8281 225.855 17.5625 226.09 17.9688C226.324 18.3672 226.703 18.5664 227.227 18.5664C227.797 18.5664 228.492 18.3516 229.312 17.9219L229.676 18.4258C228.387 19.1289 227.332 19.4805 226.512 19.4805C226.074 19.4805 225.719 19.4414 225.445 19.3633C225.172 19.2852 224.922 19.1328 224.695 18.9062C224.469 18.6797 224.305 18.3477 224.203 17.9102C224.109 17.4648 224.062 16.8906 224.062 16.1875V8.24219L222.305 8.34766V7.59766C222.922 7.46484 223.508 7.37891 224.062 7.33984V5.67578C224.727 5.30078 225.27 4.76562 225.691 4.07031L226.055 4.21094C225.922 4.52344 225.836 4.87891 225.797 5.27734C225.758 5.66797 225.738 6.33203 225.738 7.26953H229.77V7.67969C229.441 7.8125 229.109 7.92578 228.773 8.01953C228.438 8.10547 228.09 8.14844 227.73 8.14844H225.738V15.7656ZM242.508 7.16406L237.516 20.1016C237.305 20.6562 237.121 21.1133 236.965 21.4727C236.816 21.832 236.641 22.2031 236.438 22.5859C236.234 22.9766 236.035 23.293 235.84 23.5352C235.652 23.7773 235.43 23.9961 235.172 24.1914C234.922 24.3945 234.648 24.5508 234.352 24.6602C233.109 24.707 232.02 24.2852 231.082 23.3945C231.504 22.8789 232.09 22.4375 232.84 22.0703L232.98 22.2109C233.293 22.9375 233.797 23.4609 234.492 23.7812C234.828 23.5078 235.172 23.0547 235.523 22.4219C235.883 21.7969 236.324 20.7773 236.848 19.3633L232.676 9.49609C232.457 8.94141 232.211 8.54297 231.938 8.30078C231.672 8.05859 231.395 7.94141 231.105 7.94922C230.824 7.95703 230.5 7.98438 230.133 8.03125L230.004 7.79688C231.316 7.14062 232.469 6.8125 233.461 6.8125L236.988 15.4023C237.145 15.7773 237.328 16.4961 237.539 17.5586H237.738C238.113 16.3164 238.305 15.6836 238.312 15.6602L240.926 8.17188C241.027 7.89062 240.91 7.69141 240.574 7.57422C240.238 7.44922 239.73 7.41797 239.051 7.48047L238.98 7.1875C239.645 7.05469 240.773 6.96875 242.367 6.92969L242.508 7.16406Z" fill="black"/>
</svg>
