<svg width="258" height="25" viewBox="0 0 258 25" fill="none" xmlns="http://www.w3.org/2000/svg">
<path d="M3.864 13.6C3.368 13.008 2.856 12.496 2.328 12.064C1.8 11.632 1.256 11.28 0.696 11.008V10.576C1.8 10.016 2.856 9.152 3.864 7.984H4.704C4.448 8.528 4.192 9.008 3.936 9.424C3.68 9.824 3.432 10.16 3.192 10.432V11.152C3.432 11.408 3.68 11.744 3.936 12.16C4.192 12.56 4.448 13.04 4.704 13.6H3.864ZM3.072 11.296V10.288H17.304V11.296H3.072ZM28.4344 1.48H39.4264C39.9224 1.48 40.1704 1.728 40.1704 2.224V5.488H38.9224L38.7304 2.8H34.8904V17.584L37.0504 17.752V19H30.8104V17.752L32.9704 17.584V2.8H29.1304L28.9384 5.488H27.6904V2.224C27.6904 1.728 27.9384 1.48 28.4344 1.48ZM52.4012 16.624V9.232C52.4012 8.224 52.2172 7.504 51.8492 7.072C51.4972 6.624 50.8812 6.4 50.0012 6.4C48.4812 6.4 47.0012 6.992 45.5612 8.176V17.584L47.2172 17.752V19H41.9852V17.752L43.6652 17.584V1.96L41.9852 1.768V0.519999H44.5292C45.0252 0.519999 45.2732 0.759999 45.2732 1.24V6.928C46.9212 5.6 48.6172 4.936 50.3612 4.936C51.7372 4.936 52.7372 5.288 53.3612 5.992C53.9852 6.696 54.2972 7.776 54.2972 9.232V16.408C54.2972 17.288 54.6412 17.728 55.3292 17.728C55.5692 17.728 55.9052 17.68 56.3372 17.584L56.5532 19.024C55.8972 19.232 55.2252 19.336 54.5372 19.336C53.1132 19.336 52.4012 18.432 52.4012 16.624ZM70.3082 12.544H60.8522C60.8522 14.32 61.3002 15.704 62.1962 16.696C62.9002 17.48 63.8602 17.872 65.0762 17.872C66.3082 17.872 67.6282 17.512 69.0362 16.792L69.6362 18.184C68.0202 18.952 66.5802 19.336 65.3162 19.336C64.0682 19.336 63.0362 19.136 62.2202 18.736C61.4202 18.32 60.7882 17.768 60.3242 17.08C59.4282 15.688 58.9802 14.112 58.9802 12.352C58.9802 10.304 59.4122 8.584 60.2762 7.192C60.7242 6.488 61.3322 5.936 62.1002 5.536C62.8842 5.136 63.7962 4.936 64.8362 4.936C66.5482 4.936 67.8842 5.52 68.8442 6.688C69.8202 7.856 70.3082 9.416 70.3082 11.368V12.544ZM68.4122 11.2C68.4122 9.744 68.0922 8.584 67.4522 7.72C66.8122 6.84 65.8922 6.4 64.6922 6.4C63.4922 6.4 62.5882 6.856 61.9802 7.768C61.3722 8.68 61.0122 9.824 60.9002 11.2H68.4122ZM85.3048 10.912H86.7208C89.2168 10.912 90.4648 9.56 90.4648 6.856C90.4648 4.152 89.2168 2.8 86.7208 2.8H83.7928V17.584L85.8808 17.776V19H80.3848V17.752L81.8728 17.584V2.92L80.3848 2.728V1.48H86.7208C88.5608 1.48 89.9528 1.936 90.8968 2.848C91.8568 3.76 92.3368 5.112 92.3368 6.904C92.3368 8.68 91.8648 10.048 90.9208 11.008C89.9768 11.952 88.5768 12.424 86.7208 12.424H85.3048V10.912ZM94.9802 12.016C94.9802 9.76 95.4842 8.016 96.4922 6.784C97.5162 5.552 98.9562 4.936 100.812 4.936C102.684 4.936 104.172 5.6 105.276 6.928C106.38 8.24 106.932 10.024 106.932 12.28C106.932 14.52 106.42 16.256 105.396 17.488C104.372 18.72 102.924 19.336 101.052 19.336C99.1962 19.336 97.7162 18.68 96.6122 17.368C95.5242 16.04 94.9802 14.256 94.9802 12.016ZM105.036 12.256C105.036 10.448 104.66 9.024 103.908 7.984C103.156 6.928 102.14 6.4 100.86 6.4C99.5802 6.4 98.5882 6.888 97.8842 7.864C97.1962 8.84 96.8522 10.224 96.8522 12.016C96.8522 13.808 97.2282 15.232 97.9802 16.288C98.7482 17.344 99.7642 17.872 101.028 17.872C102.292 17.872 103.276 17.384 103.98 16.408C104.684 15.432 105.036 14.048 105.036 12.256ZM112.982 1.264V16.408C112.982 17.288 113.326 17.728 114.014 17.728C114.254 17.728 114.59 17.68 115.022 17.584L115.238 19.024C114.614 19.232 113.998 19.336 113.39 19.336C111.854 19.336 111.086 18.432 111.086 16.624V1.96L109.646 1.768V0.519999H112.262C112.742 0.519999 112.982 0.767999 112.982 1.264ZM121.073 6.016V16.408C121.073 17.288 121.425 17.728 122.129 17.728C122.401 17.728 122.729 17.68 123.113 17.584L123.353 19.024C122.697 19.232 122.025 19.336 121.337 19.336C119.913 19.336 119.201 18.432 119.201 16.624V6.712L117.761 6.52V5.272H120.353C120.833 5.272 121.073 5.52 121.073 6.016ZM120.161 3.04C119.841 3.04 119.553 2.92 119.297 2.68C119.057 2.44 118.937 2.16 118.937 1.84C118.937 1.504 119.057 1.216 119.297 0.975999C119.553 0.719999 119.841 0.592 120.161 0.592C120.497 0.592 120.785 0.719999 121.025 0.975999C121.265 1.216 121.385 1.504 121.385 1.84C121.385 2.16 121.265 2.44 121.025 2.68C120.785 2.92 120.497 3.04 120.161 3.04ZM125.295 6.592V5.272H127.383V2.152L129.279 1.72V5.272H131.895V6.592H129.279V16.408C129.279 17.272 129.631 17.704 130.335 17.704C130.799 17.704 131.247 17.616 131.679 17.44L131.895 18.904C131.143 19.192 130.383 19.336 129.615 19.336C128.863 19.336 128.303 19.12 127.935 18.688C127.567 18.24 127.383 17.536 127.383 16.576V6.592H125.295ZM137.62 6.016V16.408C137.62 17.288 137.972 17.728 138.676 17.728C138.948 17.728 139.276 17.68 139.66 17.584L139.9 19.024C139.244 19.232 138.572 19.336 137.884 19.336C136.46 19.336 135.748 18.432 135.748 16.624V6.712L134.308 6.52V5.272H136.9C137.38 5.272 137.62 5.52 137.62 6.016ZM136.708 3.04C136.388 3.04 136.1 2.92 135.844 2.68C135.604 2.44 135.484 2.16 135.484 1.84C135.484 1.504 135.604 1.216 135.844 0.975999C136.1 0.719999 136.388 0.592 136.708 0.592C137.044 0.592 137.332 0.719999 137.572 0.975999C137.812 1.216 137.932 1.504 137.932 1.84C137.932 2.16 137.812 2.44 137.572 2.68C137.332 2.92 137.044 3.04 136.708 3.04ZM148.058 19.336C147.05 19.336 146.162 19.12 145.394 18.688C144.642 18.256 144.058 17.672 143.642 16.936C142.81 15.528 142.394 13.896 142.394 12.04C142.394 9.672 143.01 7.824 144.242 6.496C144.674 6.032 145.242 5.656 145.946 5.368C146.65 5.08 147.45 4.936 148.346 4.936C149.802 4.936 151.25 5.304 152.69 6.04L152.066 7.432C150.85 6.744 149.61 6.4 148.346 6.4C147.546 6.4 146.866 6.576 146.306 6.928C145.746 7.264 145.322 7.728 145.034 8.32C144.762 8.896 144.562 9.488 144.434 10.096C144.322 10.704 144.266 11.352 144.266 12.04C144.266 12.728 144.322 13.384 144.434 14.008C144.546 14.632 144.73 15.248 144.986 15.856C145.242 16.464 145.634 16.952 146.162 17.32C146.69 17.688 147.322 17.872 148.058 17.872C149.69 17.872 150.818 17.04 151.442 15.376L152.978 15.88C152.098 18.184 150.458 19.336 148.058 19.336ZM163.899 7.288C162.651 6.696 161.507 6.4 160.467 6.4C159.427 6.4 158.651 6.584 158.139 6.952C157.643 7.32 157.395 7.832 157.395 8.488C157.395 9.128 157.651 9.664 158.163 10.096C158.675 10.512 159.299 10.864 160.035 11.152C160.771 11.44 161.499 11.744 162.219 12.064C162.955 12.384 163.579 12.84 164.091 13.432C164.603 14.024 164.859 14.752 164.859 15.616C164.859 16.784 164.427 17.696 163.563 18.352C162.715 19.008 161.587 19.336 160.179 19.336C158.771 19.336 157.627 19 156.747 18.328C155.883 17.64 155.307 16.672 155.019 15.424L156.675 15.04C157.235 16.96 158.355 17.92 160.035 17.92C160.979 17.92 161.707 17.72 162.219 17.32C162.731 16.92 162.987 16.392 162.987 15.736C162.987 15.064 162.731 14.52 162.219 14.104C161.707 13.688 161.083 13.336 160.347 13.048C159.611 12.76 158.875 12.456 158.139 12.136C157.403 11.816 156.779 11.352 156.267 10.744C155.755 10.136 155.499 9.4 155.499 8.536C155.499 7.4 155.931 6.52 156.795 5.896C157.659 5.256 158.787 4.936 160.179 4.936C161.587 4.936 163.027 5.256 164.499 5.896L163.899 7.288ZM184.033 3.76C182.497 2.992 181.137 2.608 179.953 2.608C178.769 2.608 177.865 2.872 177.241 3.4C176.633 3.912 176.329 4.616 176.329 5.512C176.329 6.392 176.633 7.12 177.241 7.696C177.849 8.272 178.585 8.744 179.449 9.112C180.313 9.464 181.169 9.84 182.017 10.24C182.881 10.64 183.617 11.216 184.225 11.968C184.833 12.704 185.137 13.608 185.137 14.68C185.137 16.136 184.633 17.28 183.625 18.112C182.617 18.928 181.321 19.336 179.737 19.336C178.153 19.336 176.865 18.912 175.873 18.064C174.881 17.2 174.217 16 173.881 14.464L175.561 14.056C176.217 16.6 177.561 17.872 179.593 17.872C180.745 17.872 181.633 17.592 182.257 17.032C182.897 16.472 183.217 15.688 183.217 14.68C183.217 13.56 182.633 12.664 181.465 11.992C180.953 11.704 180.385 11.432 179.761 11.176C179.137 10.904 178.505 10.616 177.865 10.312C177.241 9.992 176.665 9.64 176.137 9.256C175.625 8.872 175.209 8.368 174.889 7.744C174.569 7.12 174.409 6.4 174.409 5.584C174.409 4.176 174.897 3.088 175.873 2.32C176.865 1.536 178.137 1.144 179.689 1.144C181.257 1.144 182.905 1.536 184.633 2.32L184.033 3.76ZM187.535 12.016C187.535 9.76 188.039 8.016 189.047 6.784C190.071 5.552 191.511 4.936 193.367 4.936C195.239 4.936 196.727 5.6 197.831 6.928C198.935 8.24 199.487 10.024 199.487 12.28C199.487 14.52 198.975 16.256 197.951 17.488C196.927 18.72 195.479 19.336 193.607 19.336C191.751 19.336 190.271 18.68 189.167 17.368C188.079 16.04 187.535 14.256 187.535 12.016ZM197.591 12.256C197.591 10.448 197.215 9.024 196.463 7.984C195.711 6.928 194.695 6.4 193.415 6.4C192.135 6.4 191.143 6.888 190.439 7.864C189.751 8.84 189.407 10.224 189.407 12.016C189.407 13.808 189.783 15.232 190.535 16.288C191.303 17.344 192.319 17.872 193.583 17.872C194.847 17.872 195.831 17.384 196.535 16.408C197.239 15.432 197.591 14.048 197.591 12.256ZM208.105 19.336C207.097 19.336 206.209 19.12 205.441 18.688C204.689 18.256 204.105 17.672 203.689 16.936C202.857 15.528 202.441 13.896 202.441 12.04C202.441 9.672 203.057 7.824 204.289 6.496C204.721 6.032 205.289 5.656 205.993 5.368C206.697 5.08 207.497 4.936 208.393 4.936C209.849 4.936 211.297 5.304 212.737 6.04L212.113 7.432C210.897 6.744 209.657 6.4 208.393 6.4C207.593 6.4 206.913 6.576 206.353 6.928C205.793 7.264 205.369 7.728 205.081 8.32C204.809 8.896 204.609 9.488 204.481 10.096C204.369 10.704 204.313 11.352 204.313 12.04C204.313 12.728 204.369 13.384 204.481 14.008C204.593 14.632 204.777 15.248 205.033 15.856C205.289 16.464 205.681 16.952 206.209 17.32C206.737 17.688 207.369 17.872 208.105 17.872C209.737 17.872 210.865 17.04 211.489 15.376L213.025 15.88C212.145 18.184 210.505 19.336 208.105 19.336ZM218.738 6.016V16.408C218.738 17.288 219.09 17.728 219.794 17.728C220.066 17.728 220.394 17.68 220.778 17.584L221.018 19.024C220.362 19.232 219.69 19.336 219.002 19.336C217.578 19.336 216.866 18.432 216.866 16.624V6.712L215.426 6.52V5.272H218.018C218.498 5.272 218.738 5.52 218.738 6.016ZM217.826 3.04C217.506 3.04 217.218 2.92 216.962 2.68C216.722 2.44 216.602 2.16 216.602 1.84C216.602 1.504 216.722 1.216 216.962 0.975999C217.218 0.719999 217.506 0.592 217.826 0.592C218.162 0.592 218.45 0.719999 218.69 0.975999C218.93 1.216 219.05 1.504 219.05 1.84C219.05 2.16 218.93 2.44 218.69 2.68C218.45 2.92 218.162 3.04 217.826 3.04ZM234.839 12.544H225.383C225.383 14.32 225.831 15.704 226.727 16.696C227.431 17.48 228.391 17.872 229.607 17.872C230.839 17.872 232.159 17.512 233.567 16.792L234.167 18.184C232.551 18.952 231.111 19.336 229.847 19.336C228.599 19.336 227.567 19.136 226.751 18.736C225.951 18.32 225.319 17.768 224.855 17.08C223.959 15.688 223.511 14.112 223.511 12.352C223.511 10.304 223.943 8.584 224.807 7.192C225.255 6.488 225.863 5.936 226.631 5.536C227.415 5.136 228.327 4.936 229.367 4.936C231.079 4.936 232.415 5.52 233.375 6.688C234.351 7.856 234.839 9.416 234.839 11.368V12.544ZM232.943 11.2C232.943 9.744 232.623 8.584 231.983 7.72C231.343 6.84 230.423 6.4 229.223 6.4C228.023 6.4 227.119 6.856 226.511 7.768C225.903 8.68 225.543 9.824 225.431 11.2H232.943ZM237.139 6.592V5.272H239.227V2.152L241.123 1.72V5.272H243.739V6.592H241.123V16.408C241.123 17.272 241.475 17.704 242.179 17.704C242.643 17.704 243.091 17.616 243.523 17.44L243.739 18.904C242.987 19.192 242.227 19.336 241.459 19.336C240.707 19.336 240.147 19.12 239.779 18.688C239.411 18.24 239.227 17.536 239.227 16.576V6.592H237.139ZM251.6 21.544C251.168 22.776 250.68 23.624 250.136 24.088C249.608 24.568 248.888 24.808 247.976 24.808C247.08 24.808 246.264 24.592 245.528 24.16L246.056 22.768C246.648 23.104 247.24 23.272 247.832 23.272C248.776 23.272 249.432 22.768 249.8 21.76L250.568 19.576L245.12 5.272H247.04L251.408 17.032L255.056 5.896C255.2 5.48 255.496 5.272 255.944 5.272H257.864V6.544L256.688 6.736L251.6 21.544Z" fill="black"/>
</svg>
