<?xml version="1.0" encoding="UTF-8"?><svg id="Layer_2" xmlns="http://www.w3.org/2000/svg" viewBox="0 0 509.0957 239.31836"><g id="Layer_1-2"><path d="m83.45459,37.52783c18.98682,0,36.87012,11.92236,46.36377,11.92236,5.96094,0,9.05176-1.9873,9.05176-5.96143,0-2.20752-.2207-3.53223-.2207-5.29834,0-1.32471.6626-1.9873,1.54541-1.9873,1.32471,0,1.54541.6626,1.54541,2.64941,0,10.37695-5.07764,31.35059-5.07764,53.42871,0,1.76611-1.54541,2.87012-3.97412,2.87012-23.62354,0-28.70117-55.41553-50.11719-55.41553-5.96094,0-10.81787,3.97412-10.81787,10.37646,0,31.57129,64.90918,37.97412,64.90918,90.51953,0,37.09082-27.37695,53.87012-69.7666,53.87012C17.44141,194.50195,0,176.83984,0,146.37207c0-15.23389,11.25977-29.58447,30.90918-29.58447,16.7793,0,29.14258,11.03906,29.14258,26.71436,0,9.05225-5.74023,27.15625-27.37646,27.15625-14.79199,0-16.7793-8.38965-23.84424-8.38965-1.32471,0-2.20752.88281-2.20752,2.64893,0,3.97412,9.05176,12.58447,29.36328,12.58447,19.87061,0,34.22119-8.16895,34.22119-28.48047,0-33.1167-44.59766-34.66211-44.59766-69.76611,0-24.50684,18.76611-41.72754,57.84424-41.72754Z"/><path d="m152.33105,69.54102c0-5.29883-1.32471-7.72754-3.31152-7.72754-1.54541,0-2.87012.44189-4.19482.44189-1.104,0-1.32471-.6626-1.32471-1.32471,0-.6626.44141-1.32471,1.54541-1.32471,21.85693,0,49.01318-12.14307,62.25977-25.61035.66211-.6626.8833-.8833,1.54541-.8833.6626,0,.8833.6626.8833,1.54541,0,2.42871-1.7666,12.80518-1.7666,18.9873,0,5.51953,1.5459,6.18164,5.29883,6.18164,1.32471,0,3.31201-.2207,4.63623-.2207.8833,0,1.32471.66211,1.32471,1.32471,0,.66211-.44141,1.32471-1.54541,1.32471-1.98682,0-3.75293-.2207-5.74023-.2207-3.75293,0-4.85693,2.42822-5.29883,6.40234-3.31152,32.67529-10.37646,79.92236-10.37646,87.64941,0,3.09082.8833,4.85742,3.31201,4.85742,4.85693,0,8.16846-12.58447,8.16846-26.93506,0-5.07812-1.104-6.62354-1.104-8.16895,0-1.32471.6626-2.42871,1.9873-2.42871,1.104,0,1.98682.66211,1.98682,3.97412,0,39.96094-12.36328,54.75342-37.53223,54.75342-25.38965,0-30.46777-12.14307-30.46777-31.57178,0-19.64941,9.71436-60.05176,9.71436-81.02588Z"/><path d="m268.45557,57.39795c29.14307,0,40.18213,12.58447,67.55859,12.58447,4.41553,0,8.16895-1.98682,8.16895-6.62305,0-.8833-.2207-1.7666-.2207-2.64941,0-1.32471.66211-1.7666,1.54541-1.7666,1.32471,0,1.54541.8833,1.54541,1.7666,0,20.31152-9.93506,71.97412-9.93506,96.03906,0,3.09082.8833,4.19482,2.42871,4.19482,3.09082,0,5.07764-3.53271,5.07764-11.48096,0-2.87012-.2207-5.07764-.2207-5.74023,0-1.32471.44141-1.98682,1.54541-1.98682.8833,0,1.54541.44141,1.54541,2.20801,0,28.03857-11.92188,38.19482-33.1167,38.19482-17.44141,0-27.59766-6.40234-27.59766-23.40283,0-13.90918,2.64941-22.74023,2.64941-28.03906,0-2.20752-1.32471-2.87012-2.64941-2.87012s-2.42822.6626-2.64941,3.09082c-3.97363,34.44189-12.14258,51.22119-37.31152,51.22119-24.28564,0-32.896-14.57178-32.896-41.50684,0-54.97412,19.20752-83.23389,54.53223-83.23389Zm15.89648,3.75342c-8.61035,0-17.6626,40.84424-17.6626,80.80518,0,9.49365,1.104,13.02588,6.18164,13.02588,4.63672,0,6.62354-6.84375,8.61084-20.75293,2.64893-19.42871,8.16846-56.96143,8.16846-64.02637,0-5.51953-1.32471-9.05176-5.29834-9.05176Z"/><path d="m408.20459,206.42383c-5.96094,0-28.25977-9.49316-43.93506-9.49316-4.41553,0-8.16895,1.9873-8.16895,6.62402,0,.88281.2207,1.76562.2207,2.64844,0,1.3252-.66211,1.7666-1.54541,1.7666-1.32471,0-1.54541-.88379-1.54541-1.7666,0-17.44141,8.16895-90.74023,8.16895-119.44141,0-3.75342-.6626-6.84424-4.19482-6.84424-1.54541,0-3.09082.8833-5.07812.8833-1.54541,0-1.98682-.6626-1.98682-1.76611,0-1.104.66211-1.9873,2.42871-1.9873,3.31152,0,7.06494,1.104,10.15576,1.104,1.76611,0,2.64941-1.32471,2.64941-2.64941,0-4.85693-1.32471-7.06494-1.32471-20.75342,0-24.50635,17.44141-38.41553,38.63623-38.41553,25.61035,0,32.67529,13.46777,32.67529,30.46777,0,13.68799-7.72705,22.07764-19.64941,22.07764-13.68799,0-20.75293-8.61035-20.75293-20.31152,0-11.03906,6.18164-17.44141,10.37646-21.19482,2.20801-1.98682,3.53223-3.53223,3.53223-5.51953,0-1.98682-1.32422-3.09082-4.41553-3.09082-12.58447,0-18.10352,13.02588-19.20752,26.93506-1.9873,24.28564,12.36377,31.57129,25.83105,31.57129,6.62354,0,12.58447-.2207,14.35059-.2207,2.20801,0,2.64941.8833,2.64941,1.9873,0,1.32471-1.104,1.76611-2.64941,1.76611-1.104,0-3.31152-.44141-4.63623-.44141-3.75342,0-2.42871.66211-3.31152,13.24658-1.5459,21.19482-5.29883,91.84424-6.18213,110.16943,0,1.76562-1.32471,2.64844-3.09082,2.64844Z"/><path d="m481.94287,206.42383c-5.96094,0-28.25977-9.49316-43.93506-9.49316-4.41553,0-8.16895,1.9873-8.16895,6.62402,0,.88281.2207,1.76562.2207,2.64844,0,1.3252-.66211,1.7666-1.54541,1.7666-1.32471,0-1.54541-.88379-1.54541-1.7666,0-17.44141,8.16895-90.74023,8.16895-119.44141,0-3.75342-.6626-6.84424-4.19482-6.84424-1.54541,0-3.09082.8833-5.07812.8833-1.54541,0-1.98682-.6626-1.98682-1.76611,0-1.104.66211-1.9873,2.42871-1.9873,3.31152,0,7.06494,1.104,10.15576,1.104,1.76611,0,2.64941-1.32471,2.64941-2.64941,0-4.85693-1.32471-7.06494-1.32471-20.75342,0-24.50635,17.44141-38.41553,38.63623-38.41553,25.61035,0,32.67529,13.46777,32.67529,30.46777,0,13.68799-7.72705,22.07764-19.64941,22.07764-13.68799,0-20.75293-8.61035-20.75293-20.31152,0-11.03906,6.18164-17.44141,10.37646-21.19482,2.20801-1.98682,3.53223-3.53223,3.53223-5.51953,0-1.98682-1.32422-3.09082-4.41553-3.09082-12.58447,0-18.10352,13.02588-19.20752,26.93506-1.9873,24.28564,12.36377,31.57129,25.83105,31.57129,6.62354,0,12.58447-.2207,14.35059-.2207,2.20801,0,2.64941.8833,2.64941,1.9873,0,1.32471-1.104,1.76611-2.64941,1.76611-1.104,0-3.31152-.44141-4.63623-.44141-3.75342,0-2.42871.66211-3.31152,13.24658-1.5459,21.19482-5.29883,91.84424-6.18213,110.16943,0,1.76562-1.32471,2.64844-3.09082,2.64844Z"/></g></svg>