<?xml version="1.0" encoding="UTF-8"?><svg id="Layer_2" xmlns="http://www.w3.org/2000/svg" viewBox="0 0 253.91016 119.35889"><g id="Layer_1-2"><path d="m41.62061,18.72021c9.46924,0,18.3877,5.94629,23.12256,5.94629,2.97314,0,4.51416-.99121,4.51416-2.97314,0-1.10107-.10986-1.76172-.10986-2.64258,0-.66064.33057-.99072.771-.99072.66016,0,.77051.33008.77051,1.32129,0,5.1748-2.53223,15.63477-2.53223,26.64551,0,.88086-.771,1.43164-1.98242,1.43164-11.78125,0-14.31348-27.63672-24.99414-27.63672-2.97266,0-5.39551,1.98145-5.39551,5.1748,0,15.74512,32.37207,18.93848,32.37207,45.14404,0,18.49805-13.65332,26.86621-34.79395,26.86621C8.69873,97.00684,0,88.19824,0,73.00342c0-7.59766,5.61572-14.75439,15.41504-14.75439,8.36816,0,14.53418,5.50537,14.53418,13.32275,0,4.51465-2.86279,13.54346-13.65332,13.54346-7.37744,0-8.36816-4.18408-11.8916-4.18408-.66064,0-1.10107.44043-1.10107,1.32129,0,1.98193,4.51465,6.27637,14.64453,6.27637,9.90918,0,17.06641-4.07422,17.06641-14.2041,0-16.51611-22.2417-17.28711-22.2417-34.79395,0-12.22168,9.35889-20.81055,28.84814-20.81055Z"/><path d="m75.97461,34.68604c0-2.64258-.66064-3.85352-1.65186-3.85352-.77051,0-1.43115.21973-2.0918.21973-.55078,0-.66064-.33008-.66064-.66016,0-.33057.22021-.66113.771-.66113,10.90039,0,24.44336-6.05566,31.0498-12.77246.33057-.33008.44043-.44043.771-.44043s.44043.33057.44043.771c0,1.21143-.88086,6.38623-.88086,9.46924,0,2.75293.771,3.08301,2.64258,3.08301.66064,0,1.65186-.11035,2.31201-.11035.44043,0,.66113.33057.66113.66113,0,.33008-.2207.66016-.771.66016-.99072,0-1.87158-.10986-2.86279-.10986-1.87207,0-2.42236,1.21143-2.64258,3.19287-1.65137,16.2959-5.1748,39.85938-5.1748,43.71289,0,1.5415.44043,2.42236,1.65137,2.42236,2.42236,0,4.07422-6.27588,4.07422-13.43311,0-2.53223-.55078-3.30322-.55078-4.07422,0-.66016.33008-1.21094.99121-1.21094.55029,0,.99072.33008.99072,1.98193,0,19.9292-6.16602,27.30664-18.71826,27.30664-12.66211,0-15.19482-6.05615-15.19482-15.74561,0-9.79932,4.84473-29.94922,4.84473-40.40918Z"/><path d="m133.89014,28.63037c14.53418,0,20.03955,6.27588,33.69287,6.27588,2.20215,0,4.07373-.99072,4.07373-3.30322,0-.44043-.10986-.88086-.10986-1.32129,0-.66064.33057-.88086.771-.88086.66016,0,.77051.44043.77051.88086,0,10.12988-4.95508,35.89502-4.95508,47.89648,0,1.54199.44043,2.09229,1.21143,2.09229,1.5415,0,2.53271-1.76172,2.53271-5.72559,0-1.43115-.11035-2.53271-.11035-2.86279,0-.66064.22021-.99121.77051-.99121.44043,0,.771.2207.771,1.10156,0,13.9834-5.9458,19.04834-16.51611,19.04834-8.69824,0-13.76367-3.19287-13.76367-11.67139,0-6.93652,1.32129-11.34082,1.32129-13.9834,0-1.10156-.66016-1.43164-1.32129-1.43164-.66016,0-1.21094.33008-1.32129,1.5415-1.98145,17.17676-6.05566,25.54492-18.60791,25.54492-12.11182,0-16.40576-7.26709-16.40576-20.7002,0-27.4165,9.5791-41.51025,27.19629-41.51025Zm7.92773,1.87158c-4.29395,0-8.80859,20.36963-8.80859,40.29932,0,4.73438.55078,6.49609,3.08301,6.49609,2.3125,0,3.30322-3.41309,4.29395-10.34961,1.32129-9.68945,4.07422-28.4082,4.07422-31.93164,0-2.75244-.66064-4.51416-2.64258-4.51416Z"/><path d="m203.58936,102.95264c-2.97266,0-14.09375-4.73438-21.91113-4.73438-2.20215,0-4.07422.99072-4.07422,3.30273,0,.44043.11035.88086.11035,1.32129,0,.66113-.33057.88086-.771.88086-.66064,0-.771-.44043-.771-.88086,0-8.69824,4.07422-45.25391,4.07422-59.56787,0-1.87158-.33008-3.41357-2.0918-3.41357-.771,0-1.54199.44043-2.53271.44043-.771,0-.99072-.33008-.99072-.88086,0-.55029.33008-.99072,1.21094-.99072,1.65137,0,3.52344.55029,5.06494.55029.88086,0,1.32129-.66016,1.32129-1.32129,0-2.42188-.66064-3.52344-.66064-10.34961,0-12.22217,8.69824-19.15918,19.26855-19.15918,12.77246,0,16.2959,6.7168,16.2959,15.19531,0,6.82617-3.85352,11.01074-9.79932,11.01074-6.82666,0-10.3501-4.29443-10.3501-10.12988,0-5.50586,3.08301-8.69873,5.1748-10.57031,1.10156-.99121,1.76172-1.76172,1.76172-2.75293s-.66016-1.5415-2.20215-1.5415c-6.27588,0-9.02832,6.49658-9.5791,13.43311-.99121,12.11182,6.16602,15.74512,12.88281,15.74512,3.30273,0,6.27588-.10986,7.15674-.10986,1.10107,0,1.32129.44043,1.32129.99072,0,.66113-.55029.88086-1.32129.88086-.55029,0-1.65186-.21973-2.31201-.21973-1.87207,0-1.21143.33008-1.65186,6.60645-.771,10.57031-2.64258,45.80469-3.08301,54.94336,0,.88086-.66064,1.32129-1.5415,1.32129Z"/><path d="m240.36621,102.95264c-2.97314,0-14.09375-4.73438-21.91162-4.73438-2.20215,0-4.07373.99072-4.07373,3.30273,0,.44043.10986.88086.10986,1.32129,0,.66113-.33008.88086-.77051.88086-.66064,0-.77051-.44043-.77051-.88086,0-8.69824,4.07373-45.25391,4.07373-59.56787,0-1.87158-.33057-3.41357-2.09229-3.41357-.77051,0-1.54102.44043-2.53223.44043-.77051,0-.99121-.33008-.99121-.88086,0-.55029.33057-.99072,1.21143-.99072,1.65186,0,3.52344.55029,5.06494.55029.88086,0,1.32129-.66016,1.32129-1.32129,0-2.42188-.66064-3.52344-.66064-10.34961,0-12.22217,8.69873-19.15918,19.26904-19.15918,12.77246,0,16.2959,6.7168,16.2959,15.19531,0,6.82617-3.854,11.01074-9.7998,11.01074-6.82666,0-10.3501-4.29443-10.3501-10.12988,0-5.50586,3.08301-8.69873,5.17529-10.57031,1.10059-.99121,1.76172-1.76172,1.76172-2.75293s-.66113-1.5415-2.20215-1.5415c-6.27637,0-9.0293,6.49658-9.57959,13.43311-.99072,12.11182,6.16602,15.74512,12.88232,15.74512,3.30371,0,6.27637-.10986,7.15723-.10986,1.10107,0,1.32129.44043,1.32129.99072,0,.66113-.55078.88086-1.32129.88086-.55078,0-1.65137-.21973-2.3125-.21973-1.87158,0-1.21094.33008-1.65137,6.60645-.77051,10.57031-2.64258,45.80469-3.08301,54.94336,0,.88086-.66064,1.32129-1.5415,1.32129Z"/></g></svg>